<svg width="16" height="19" viewBox="0 0 16 19" fill="none" xmlns="http://www.w3.org/2000/svg">
<path d="M3.73363 8.34989e-07C4.10625 0.147063 4.37241 0.475789 4.43451 0.865071C4.47887 1.08999 4.43451 1.2457 4.07964 1.86855C2.74885 4.20425 2.06571 6.84271 2.1012 9.51578C2.06571 12.111 2.71336 14.6457 3.99092 16.9208C4.17723 17.3014 4.34579 17.6647 4.48775 18.054C4.43451 18.3828 4.26595 18.6855 3.99092 18.8672C3.59168 19.0748 3.10373 19.0316 2.73998 18.7893C2.49156 18.4779 2.27864 18.1665 2.1012 17.8032C1.14303 16.0038 0.495385 14.1007 0.175996 12.111C-0.0280583 10.5452 -0.0546733 8.95348 0.0961486 7.37906C0.371179 5.35479 0.983341 3.39973 1.92376 1.57443C2.49157 0.467139 2.81095 7.54325e-07 3.14809 7.83799e-07C3.21906 7.90003e-07 3.29891 7.96984e-07 3.36988 8.03189e-07C3.49409 8.14047e-07 3.60943 8.2413e-07 3.73363 8.34989e-07ZM7.60179 1.91181C8.10749 2.05022 8.42688 2.55196 8.32041 3.0537C8.32041 3.15751 8.04538 3.6333 7.79697 4.11774C6.75008 6.08145 6.29762 8.29603 6.50167 10.502C6.62588 12.085 7.09609 13.6249 7.86794 15.0176C8.42687 16.1076 8.46236 16.2806 8.1341 16.7478C7.74374 17.1717 7.09609 17.2322 6.617 16.8689C5.97823 15.9519 5.47253 14.9484 5.09991 13.893C3.9643 10.6144 4.14174 7.04168 5.59674 3.89282C6.34198 2.25784 6.86542 1.73014 7.60179 1.95506L7.60179 1.91181ZM11.5941 3.84092C11.9135 3.97933 12.1531 4.25615 12.2418 4.58488C12.2418 4.75789 12.2418 4.98281 11.8426 5.67487C10.5206 8.01056 10.5206 10.848 11.8426 13.1837C12.4192 14.2737 12.4192 14.4986 11.949 14.9138C11.7805 15.1041 11.532 15.1993 11.2659 15.1647C10.6981 15.1647 10.3787 14.8965 9.89961 13.919C9.1455 12.5695 8.75514 11.0556 8.76401 9.51578C8.72852 7.95 9.11888 6.39287 9.89074 5.01741C10.3698 4.10909 10.6094 3.89282 11.0884 3.81496C11.257 3.79766 11.4345 3.81496 11.5941 3.89282L11.5941 3.84092ZM15.3292 5.68352C15.622 5.82193 15.8527 6.0555 15.968 6.35827C16.0567 6.66105 15.968 6.92057 15.6131 7.47422C15.1695 8.06246 14.9566 8.78912 15.001 9.51578C14.9389 10.2511 15.1429 10.9778 15.5776 11.5833C15.7285 11.7996 15.8527 12.0331 15.968 12.2667C16.0656 12.8117 15.693 13.3307 15.0808 13.4346C14.6017 13.5211 14.2646 13.3221 13.821 12.6646C12.5346 10.7528 12.5346 8.28738 13.821 6.37557C14.2735 5.70947 14.788 5.5105 15.3204 5.68352L15.3292 5.68352Z" fill="#8A44E2"/>
</svg>
