<svg width="84" height="84" viewBox="0 0 84 84" fill="none" xmlns="http://www.w3.org/2000/svg">
<circle cx="42" cy="42" r="42" fill="#FFEBE9"/>
<g clip-path="url(#clip0_31_1979)">
<path d="M28.6667 28.6667H38.6667V38.6667H28.6667V28.6667ZM55.3333 28.6667V38.6667H45.3333V28.6667H55.3333ZM45.3333 47H48.6667V43.6667H45.3333V40.3333H48.6667V43.6667H52V40.3333H55.3333V43.6667H52V47H55.3333V52H52V55.3333H48.6667V52H43.6667V55.3333H40.3333V48.6667H45.3333V47ZM48.6667 47V52H52V47H48.6667ZM28.6667 55.3333V45.3333H38.6667V55.3333H28.6667ZM32 32V35.3333H35.3333V32H32ZM48.6667 32V35.3333H52V32H48.6667ZM32 48.6667V52H35.3333V48.6667H32ZM28.6667 40.3333H32V43.6667H28.6667V40.3333ZM37 40.3333H43.6667V47H40.3333V43.6667H37V40.3333ZM40.3333 32H43.6667V38.6667H40.3333V32ZM25.3333 25.3333V32H22V25.3333C22 24.4493 22.3512 23.6014 22.9763 22.9763C23.6014 22.3512 24.4493 22 25.3333 22H32V25.3333H25.3333ZM58.6667 22C59.5507 22 60.3986 22.3512 61.0237 22.9763C61.6488 23.6014 62 24.4493 62 25.3333V32H58.6667V25.3333H52V22H58.6667ZM25.3333 52V58.6667H32V62H25.3333C24.4493 62 23.6014 61.6488 22.9763 61.0237C22.3512 60.3986 22 59.5507 22 58.6667V52H25.3333ZM58.6667 58.6667V52H62V58.6667C62 59.5507 61.6488 60.3986 61.0237 61.0237C60.3986 61.6488 59.5507 62 58.6667 62H52V58.6667H58.6667Z" fill="#BB0200"/>
</g>
<defs>
<clipPath id="clip0_31_1979">
<rect width="40" height="40" fill="white" transform="translate(22 22)"/>
</clipPath>
</defs>
</svg>
