<svg width="17" height="22" viewBox="0 0 17 22" fill="none" xmlns="http://www.w3.org/2000/svg">
<path d="M5.00011 8.49998C5.01047 7.70755 5.32986 6.95049 5.89024 6.39011C6.45062 5.82973 7.20768 5.51034 8.00011 5.49998C8.79253 5.51034 9.54959 5.82973 10.11 6.39011C10.6704 6.95049 10.9897 7.70755 11.0001 8.49998C10.9897 9.2924 10.6704 10.0495 10.11 10.6098C9.54959 11.1702 8.79253 11.4896 8.00011 11.5C7.20768 11.4896 6.45062 11.1702 5.89024 10.6098C5.32986 10.0495 5.01047 9.2924 5.00011 8.49998ZM8.00011 17.5L12.0001 18.5V15.42C10.7938 16.1464 9.40813 16.5206 8.00011 16.5C6.59208 16.5206 5.20643 16.1464 4.00011 15.42V18.5L8.00011 17.5ZM8.00011 2.49998C7.21208 2.4856 6.42943 2.63254 5.70027 2.93177C4.97112 3.23099 4.31087 3.67619 3.76011 4.23998C3.19022 4.79134 2.73988 5.45408 2.4371 6.18695C2.13431 6.91982 1.98557 7.70715 2.00011 8.49998C1.98969 9.28778 2.14044 10.0694 2.4431 10.7968C2.74576 11.5242 3.19394 12.1821 3.76011 12.73C4.3083 13.2992 4.9674 13.7499 5.69668 14.0544C6.42595 14.3588 7.20991 14.5105 8.00011 14.5C8.79031 14.5105 9.57426 14.3588 10.3035 14.0544C11.0328 13.7499 11.6919 13.2992 12.2401 12.73C12.8063 12.1821 13.2545 11.5242 13.5571 10.7968C13.8598 10.0694 14.0105 9.28778 14.0001 8.49998C14.0146 7.70715 13.8659 6.91982 13.5631 6.18695C13.2603 5.45408 12.81 4.79134 12.2401 4.23998C11.6893 3.67619 11.0291 3.23099 10.2999 2.93177C9.57079 2.63254 8.78814 2.4856 8.00011 2.49998ZM16.0001 8.49998C15.9788 9.45986 15.7858 10.4082 15.4301 11.3C15.1097 12.2074 14.6249 13.0481 14.0001 13.78V21.5L8.00011 19.5L2.00011 21.5V13.78C0.705796 12.3264 -0.00639275 10.4463 0.000106447 8.49998C-0.0175184 7.45056 0.180143 6.40867 0.580889 5.43862C0.981634 4.46858 1.57696 3.59097 2.33011 2.85998C3.06381 2.10007 3.94547 1.49861 4.92067 1.09271C5.89587 0.686802 6.94391 0.485075 8.00011 0.499976C9.0563 0.485075 10.1043 0.686802 11.0795 1.09271C12.0547 1.49861 12.9364 2.10007 13.6701 2.85998C14.4233 3.59097 15.0186 4.46858 15.4193 5.43862C15.8201 6.40867 16.0177 7.45056 16.0001 8.49998Z" fill="#289847"/>
</svg>
