<svg width="18" height="23" viewBox="0 0 18 23" fill="none" xmlns="http://www.w3.org/2000/svg">
<path d="M8 0C4.14 0 1 3.14 1 7C1 8.85652 1.7375 10.637 3.05025 11.9497C4.36301 13.2625 6.14348 14 8 14C11.86 14 15 10.87 15 7C15 3.14 11.86 0 8 0ZM8 2.15C10.67 2.15 12.85 4.32 12.85 7C12.85 9.68 10.67 11.85 8 11.85C6.7137 11.85 5.48008 11.339 4.57053 10.4295C3.66098 9.51992 3.15 8.2863 3.15 7C3.15 5.7137 3.66098 4.48008 4.57053 3.57053C5.48008 2.66098 6.7137 2.15 8 2.15V2.15ZM7 4V7.69L10.19 9.53L10.94 8.23L8.5 6.82V4H7ZM0 15V23H2V20H14V23L18 19L14 15V18H2V15" fill="#C77E3A"/>
</svg>
