<svg width="23" height="21" viewBox="0 0 23 21" fill="none" xmlns="http://www.w3.org/2000/svg">
<path d="M3 0.75V6.75H1V0.75H3ZM1 20.75V14.75H3V20.75H1ZM4 10.75C4 11.86 3.11 12.75 2 12.75C0.9 12.75 0 11.86 0 10.75C0 9.65 0.9 8.75 2 8.75C3.11 8.75 4 9.65 4 10.75ZM15 2.75C19.42 2.75 23 6.33 23 10.75C23 15.17 19.42 18.75 15 18.75C11.4 18.75 8.36 16.37 7.35 13.1L5 10.75L7.35 8.4C8.36 5.13 11.4 2.75 15 2.75ZM15 4.75C11.69 4.75 9 7.44 9 10.75C9 14.06 11.69 16.75 15 16.75C18.31 16.75 21 14.06 21 10.75C21 7.44 18.31 4.75 15 4.75ZM14 11.75V6.75H15.5V10.95L18.5 12.75L17.68 14.01L14 11.75Z" fill="#1E84A4"/>
</svg>
