<svg width="42" height="42" viewBox="0 0 42 42" fill="none" xmlns="http://www.w3.org/2000/svg">
<circle cx="21" cy="21" r="21" fill="#FFFDFD"/>
<path d="M21 23.9026H19V21.9026H21V23.9026ZM27 23.9026H23V21.9026H27V23.9026ZM17 19.9026H15V17.9026H17V19.9026ZM27 19.9026H19V17.9026H27V19.9026ZM29 28.9026H13C12.4696 28.9026 11.9609 28.6919 11.5858 28.3168C11.2107 27.9417 11 27.433 11 26.9026V14.9026C11 14.3722 11.2107 13.8634 11.5858 13.4884C11.9609 13.1133 12.4696 12.9026 13 12.9026H29C29.5304 12.9026 30.0391 13.1133 30.4142 13.4884C30.7893 13.8634 31 14.3722 31 14.9026V26.9026C31 27.433 30.7893 27.9417 30.4142 28.3168C30.0391 28.6919 29.5304 28.9026 29 28.9026ZM13 14.9026V26.9026H29V14.9026H13Z" fill="#BB0200"/>
</svg>
