<svg width="92" height="92" viewBox="0 0 92 92" fill="none" xmlns="http://www.w3.org/2000/svg">
<circle cx="46" cy="46" r="46" fill="#FFF3F1"/>
<path d="M31.2174 39.1667C30.2609 39.1667 29.4783 38.4542 29.4783 37.5833C29.4783 36.7125 30.2609 36 31.2174 36H35.6348C35.0261 36.95 34.6957 38.0425 34.6957 39.1667H31.2174ZM34.6957 47.0833H29.4783C28.5217 47.0833 27.7391 46.3708 27.7391 45.5C27.7391 44.6292 28.5217 43.9167 29.4783 43.9167H34.6957V47.0833ZM27.7391 55C26.7791 55 26 54.2875 26 53.4167C26 52.5458 26.7791 51.8333 27.7391 51.8333H34.6957C34.6957 52.9575 35.0261 54.05 35.6348 55H27.7391ZM62.5217 36H41.6522C39.7217 36 38.1739 37.4092 38.1739 39.1667V51.8333C38.1739 53.5908 39.7217 55 41.6522 55H62.5217C64.4522 55 66 53.5908 66 51.8333V39.1667C66 37.4092 64.4522 36 62.5217 36ZM62.5217 45.5H41.6522V40.75H62.5217V45.5Z" fill="#BB0200"/>
</svg>
