<svg width="18" height="21" viewBox="0 0 18 21" fill="none" xmlns="http://www.w3.org/2000/svg">
<path d="M16.5 2.375L15 0.875L13.5 2.375L12 0.875L10.5 2.375L9 0.875L7.5 2.375L6 0.875L4.5 2.375L3 0.875L1.5 2.375L0 0.875V20.875L1.5 19.375L3 20.875L4.5 19.375L6 20.875L7.5 19.375L9 20.875L10.5 19.375L12 20.875L13.5 19.375L15 20.875L16.5 19.375L18 20.875V0.875L16.5 2.375ZM16 17.965H2V3.785H16V17.965ZM3 13.875H15V15.875H3V13.875ZM3 9.875H15V11.875H3V9.875ZM3 5.875H15V7.875H3V5.875Z" fill="#056447" fill-opacity="0.52"/>
</svg>
