<svg width="48" height="48" viewBox="0 0 48 48" fill="none" xmlns="http://www.w3.org/2000/svg">
<path d="M0 19.2C0 12.4794 0 9.11905 1.30792 6.55211C2.4584 4.29417 4.29417 2.4584 6.55211 1.30792C9.11905 0 12.4794 0 19.2 0H48V48H19.2C12.4794 48 9.11905 48 6.55211 46.6921C4.29417 45.5416 2.4584 43.7058 1.30792 41.4479C0 38.8809 0 35.5206 0 28.8V19.2Z" fill="#FFE5E4"/>
<path d="M30 28.5L18.5 28.5C17.4391 28.5 16.4217 28.0786 15.6716 27.3284C14.9214 26.5783 14.5 25.5609 14.5 24.5C14.5 23.4391 14.9214 22.4217 15.6716 21.6716C16.4217 20.9214 17.4391 20.5 18.5 20.5L31 20.5C31.663 20.5 32.2989 20.7634 32.7678 21.2322C33.2366 21.7011 33.5 22.337 33.5 23C33.5 23.663 33.2366 24.2989 32.7678 24.7678C32.2989 25.2366 31.663 25.5 31 25.5L20.5 25.5C20.2348 25.5 19.9804 25.3946 19.7929 25.2071C19.6054 25.0196 19.5 24.7652 19.5 24.5C19.5 24.2348 19.6054 23.9804 19.7929 23.7929C19.9804 23.6054 20.2348 23.5 20.5 23.5L30 23.5L30 22L20.5 22C19.837 22 19.2011 22.2634 18.7322 22.7322C18.2634 23.2011 18 23.837 18 24.5C18 25.163 18.2634 25.7989 18.7322 26.2678C19.2011 26.7366 19.837 27 20.5 27L31 27C32.0609 27 33.0783 26.5786 33.8284 25.8284C34.5786 25.0783 35 24.0609 35 23C35 21.9391 34.5786 20.9217 33.8284 20.1716C33.0783 19.4214 32.0609 19 31 19L18.5 19C17.0413 19 15.6424 19.5795 14.6109 20.6109C13.5795 21.6424 13 23.0413 13 24.5C13 25.9587 13.5795 27.3576 14.6109 28.3891C15.6424 29.4205 17.0413 30 18.5 30L30 30L30 28.5Z" fill="#BB0200"/>
</svg>
