<svg width="90" height="90" viewBox="0 0 90 90" fill="none" xmlns="http://www.w3.org/2000/svg">
<path d="M45 78.75C40.5679 78.75 36.1792 77.877 32.0844 76.1809C27.9897 74.4848 24.2691 71.9988 21.1351 68.8649C18.0012 65.7309 15.5152 62.0103 13.8191 57.9156C12.123 53.8208 11.25 49.4321 11.25 45C11.25 40.5679 12.123 36.1792 13.8191 32.0844C15.5152 27.9897 18.0012 24.2691 21.1351 21.1351C24.2691 18.0012 27.9897 15.5152 32.0844 13.8191C36.1792 12.123 40.5679 11.25 45 11.25C49.4321 11.25 53.8208 12.123 57.9156 13.8191C62.0103 15.5152 65.7309 18.0012 68.8649 21.1352C71.9988 24.2691 74.4848 27.9897 76.1809 32.0844C77.877 36.1792 78.75 40.5679 78.75 45C78.75 49.4321 77.877 53.8208 76.1809 57.9156C74.4848 62.0103 71.9988 65.7309 68.8648 68.8649C65.7309 71.9988 62.0103 74.4848 57.9156 76.1809C53.8208 77.877 49.4321 78.75 45 78.75L45 78.75Z" stroke="#E90101" stroke-width="6" stroke-linecap="round"/>
<path d="M33.75 33.75L56.25 56.25" stroke="#E90101" stroke-width="6" stroke-linecap="round"/>
<path d="M56.25 33.75L33.75 56.25" stroke="#E90101" stroke-width="6" stroke-linecap="round"/>
<rect width="90" height="90" stroke="#832323"/>
</svg>
