<svg width="327" height="48" viewBox="0 0 327 48" fill="none" xmlns="http://www.w3.org/2000/svg">
<path d="M0 19.2C0 12.4794 0 9.11905 1.30792 6.55211C2.4584 4.29417 4.29417 2.4584 6.55211 1.30792C9.11905 0 12.4794 0 19.2 0H48V48H19.2C12.4794 48 9.11905 48 6.55211 46.6921C4.29417 45.5416 2.4584 43.7058 1.30792 41.4479C0 38.8809 0 35.5206 0 28.8V19.2Z" fill="#FFE5E4"/>
<path d="M30 28.5L18.5 28.5C17.4391 28.5 16.4217 28.0786 15.6716 27.3284C14.9214 26.5783 14.5 25.5609 14.5 24.5C14.5 23.4391 14.9214 22.4217 15.6716 21.6716C16.4217 20.9214 17.4391 20.5 18.5 20.5L31 20.5C31.663 20.5 32.2989 20.7634 32.7678 21.2322C33.2366 21.7011 33.5 22.337 33.5 23C33.5 23.663 33.2366 24.2989 32.7678 24.7678C32.2989 25.2366 31.663 25.5 31 25.5L20.5 25.5C20.2348 25.5 19.9804 25.3946 19.7929 25.2071C19.6054 25.0196 19.5 24.7652 19.5 24.5C19.5 24.2348 19.6054 23.9804 19.7929 23.7929C19.9804 23.6054 20.2348 23.5 20.5 23.5L30 23.5L30 22L20.5 22C19.837 22 19.2011 22.2634 18.7322 22.7322C18.2634 23.2011 18 23.837 18 24.5C18 25.163 18.2634 25.7989 18.7322 26.2678C19.2011 26.7366 19.837 27 20.5 27L31 27C32.0609 27 33.0783 26.5786 33.8284 25.8284C34.5786 25.0783 35 24.0609 35 23C35 21.9391 34.5786 20.9217 33.8284 20.1716C33.0783 19.4214 32.0609 19 31 19L18.5 19C17.0413 19 15.6424 19.5795 14.6109 20.6109C13.5795 21.6424 13 23.0413 13 24.5C13 25.9587 13.5795 27.3576 14.6109 28.3891C15.6424 29.4205 17.0413 30 18.5 30L30 30L30 28.5Z" fill="#BB0200"/>
<path d="M56.5261 29.5L59.9001 19.42H61.6361L65.0101 29.5H63.7151L60.5581 20.148H60.9501L57.8211 29.5H56.5261ZM58.1501 27.141V25.972H63.3861V27.141H58.1501ZM70.4842 29.5C70.0362 29.5887 69.5929 29.6237 69.1542 29.605C68.7202 29.591 68.3329 29.5047 67.9922 29.346C67.6515 29.1827 67.3925 28.9307 67.2152 28.59C67.0659 28.2913 66.9842 27.9903 66.9702 27.687C66.9609 27.379 66.9562 27.0313 66.9562 26.644V19.84H68.2022V26.588C68.2022 26.896 68.2045 27.1597 68.2092 27.379C68.2185 27.5983 68.2675 27.7873 68.3562 27.946C68.5242 28.2447 68.7902 28.4197 69.1542 28.471C69.5229 28.5223 69.9662 28.5083 70.4842 28.429V29.5ZM65.4232 22.969V21.94H70.4842V22.969H65.4232ZM75.4052 29.5C74.9572 29.5887 74.5139 29.6237 74.0752 29.605C73.6412 29.591 73.2539 29.5047 72.9132 29.346C72.5725 29.1827 72.3135 28.9307 72.1362 28.59C71.9869 28.2913 71.9052 27.9903 71.8912 27.687C71.8819 27.379 71.8772 27.0313 71.8772 26.644V19.84H73.1232V26.588C73.1232 26.896 73.1255 27.1597 73.1302 27.379C73.1395 27.5983 73.1885 27.7873 73.2772 27.946C73.4452 28.2447 73.7112 28.4197 74.0752 28.471C74.4439 28.5223 74.8872 28.5083 75.4052 28.429V29.5ZM70.3442 22.969V21.94H75.4052V22.969H70.3442ZM79.0899 29.71C78.5253 29.71 78.0516 29.6073 77.6689 29.402C77.2909 29.192 77.0039 28.9167 76.8079 28.576C76.6166 28.2353 76.5209 27.862 76.5209 27.456C76.5209 27.0593 76.5956 26.7163 76.7449 26.427C76.8989 26.133 77.1136 25.8903 77.3889 25.699C77.6643 25.503 77.9933 25.349 78.3759 25.237C78.7353 25.139 79.1366 25.055 79.5799 24.985C80.0279 24.9103 80.4806 24.8427 80.9379 24.782C81.3953 24.7213 81.8223 24.663 82.2189 24.607L81.7709 24.866C81.7849 24.194 81.6496 23.697 81.3649 23.375C81.0849 23.053 80.5996 22.892 79.9089 22.892C79.4516 22.892 79.0503 22.997 78.7049 23.207C78.3643 23.4123 78.1239 23.7483 77.9839 24.215L76.8009 23.858C76.9829 23.1953 77.3353 22.675 77.8579 22.297C78.3806 21.919 79.0689 21.73 79.9229 21.73C80.6089 21.73 81.1969 21.8537 81.6869 22.101C82.1816 22.3437 82.5363 22.7123 82.7509 23.207C82.8583 23.4403 82.9259 23.6947 82.9539 23.97C82.9819 24.2407 82.9959 24.5253 82.9959 24.824V29.5H81.8899V27.687L82.1489 27.855C81.8643 28.4663 81.4653 28.9283 80.9519 29.241C80.4433 29.5537 79.8226 29.71 79.0899 29.71ZM79.2789 28.667C79.7269 28.667 80.1143 28.5877 80.4409 28.429C80.7723 28.2657 81.0383 28.0533 81.2389 27.792C81.4396 27.526 81.5703 27.2367 81.6309 26.924C81.7009 26.6907 81.7383 26.4317 81.7429 26.147C81.7523 25.8577 81.7569 25.636 81.7569 25.482L82.1909 25.671C81.7849 25.727 81.3859 25.7807 80.9939 25.832C80.6019 25.8833 80.2309 25.9393 79.8809 26C79.5309 26.056 79.2159 26.1237 78.9359 26.203C78.7306 26.2683 78.5369 26.3523 78.3549 26.455C78.1776 26.5577 78.0329 26.6907 77.9209 26.854C77.8136 27.0127 77.7599 27.211 77.7599 27.449C77.7599 27.6543 77.8113 27.8503 77.9139 28.037C78.0213 28.2237 78.1846 28.3753 78.4039 28.492C78.6279 28.6087 78.9196 28.667 79.2789 28.667ZM88.0009 29.71C87.2356 29.71 86.5846 29.5397 86.0479 29.199C85.5159 28.8537 85.1099 28.38 84.8299 27.778C84.5499 27.176 84.4053 26.49 84.3959 25.72C84.4053 24.9313 84.5523 24.2383 84.8369 23.641C85.1263 23.039 85.5393 22.57 86.0759 22.234C86.6126 21.898 87.2589 21.73 88.0149 21.73C88.8129 21.73 89.4989 21.926 90.0729 22.318C90.6516 22.71 91.0389 23.2467 91.2349 23.928L90.0029 24.299C89.8443 23.8603 89.5853 23.5197 89.2259 23.277C88.8713 23.0343 88.4629 22.913 88.0009 22.913C87.4829 22.913 87.0559 23.0343 86.7199 23.277C86.3839 23.515 86.1343 23.8463 85.9709 24.271C85.8076 24.691 85.7236 25.174 85.7189 25.72C85.7283 26.56 85.9219 27.239 86.2999 27.757C86.6826 28.2703 87.2496 28.527 88.0009 28.527C88.4956 28.527 88.9063 28.415 89.2329 28.191C89.5596 27.9623 89.8069 27.6333 89.9749 27.204L91.2349 27.533C90.9736 28.2377 90.5653 28.7767 90.0099 29.15C89.4546 29.5233 88.7849 29.71 88.0009 29.71ZM98.0466 29.5V25.713C98.0466 25.3537 98.0139 25.0083 97.9486 24.677C97.8879 24.3457 97.7783 24.0493 97.6196 23.788C97.4656 23.522 97.2556 23.312 96.9896 23.158C96.7283 23.004 96.3969 22.927 95.9956 22.927C95.6829 22.927 95.3983 22.9807 95.1416 23.088C94.8896 23.1907 94.6726 23.3493 94.4906 23.564C94.3086 23.7787 94.1663 24.0493 94.0636 24.376C93.9656 24.698 93.9166 25.0783 93.9166 25.517L93.0976 25.265C93.0976 24.5323 93.2283 23.9047 93.4896 23.382C93.7556 22.8547 94.1266 22.451 94.6026 22.171C95.0833 21.8863 95.6479 21.744 96.2966 21.744C96.7866 21.744 97.2043 21.821 97.5496 21.975C97.8949 22.129 98.1819 22.3343 98.4106 22.591C98.6393 22.843 98.8189 23.1277 98.9496 23.445C99.0803 23.7577 99.1713 24.0773 99.2226 24.404C99.2786 24.726 99.3066 25.0317 99.3066 25.321V29.5H98.0466ZM92.6566 29.5V19.42H93.7766V24.985H93.9166V29.5H92.6566ZM103.929 29.5V19.42H109.809V20.666H105.175V23.837H108.969V25.083H105.175V29.5H103.929ZM111.206 20.603V19.315H112.452V20.603H111.206ZM111.206 29.5V21.94H112.452V29.5H111.206ZM114.692 29.5V19.21H115.938V29.5H114.692ZM121.315 29.71C120.573 29.71 119.924 29.5467 119.369 29.22C118.818 28.8887 118.389 28.429 118.081 27.841C117.773 27.2483 117.619 26.5577 117.619 25.769C117.619 24.943 117.77 24.229 118.074 23.627C118.377 23.0203 118.799 22.5537 119.341 22.227C119.887 21.8957 120.526 21.73 121.259 21.73C122.019 21.73 122.666 21.905 123.198 22.255C123.734 22.605 124.136 23.1043 124.402 23.753C124.672 24.4017 124.789 25.174 124.752 26.07H123.492V25.622C123.478 24.6933 123.289 24.0003 122.925 23.543C122.561 23.081 122.019 22.85 121.301 22.85C120.531 22.85 119.945 23.0973 119.544 23.592C119.142 24.0867 118.942 24.796 118.942 25.72C118.942 26.6113 119.142 27.302 119.544 27.792C119.945 28.282 120.517 28.527 121.259 28.527C121.758 28.527 122.192 28.4127 122.561 28.184C122.929 27.9553 123.219 27.6263 123.429 27.197L124.626 27.61C124.332 28.2773 123.888 28.7953 123.296 29.164C122.708 29.528 122.047 29.71 121.315 29.71ZM118.522 26.07V25.069H124.108V26.07H118.522ZM129.166 29.703C128.265 29.703 127.526 29.507 126.947 29.115C126.373 28.7183 126.021 28.1653 125.89 27.456L127.164 27.253C127.267 27.6637 127.502 27.9903 127.871 28.233C128.24 28.471 128.697 28.59 129.243 28.59C129.761 28.59 130.167 28.4827 130.461 28.268C130.755 28.0533 130.902 27.7617 130.902 27.393C130.902 27.1783 130.853 27.0057 130.755 26.875C130.657 26.7397 130.454 26.6137 130.146 26.497C129.843 26.3803 129.383 26.2403 128.767 26.077C128.1 25.8997 127.575 25.7153 127.192 25.524C126.809 25.3327 126.536 25.111 126.373 24.859C126.21 24.607 126.128 24.3013 126.128 23.942C126.128 23.4987 126.249 23.1113 126.492 22.78C126.735 22.444 127.073 22.185 127.507 22.003C127.946 21.821 128.454 21.73 129.033 21.73C129.607 21.73 130.12 21.821 130.573 22.003C131.026 22.185 131.39 22.444 131.665 22.78C131.945 23.1113 132.111 23.4987 132.162 23.942L130.888 24.173C130.827 23.767 130.631 23.4473 130.3 23.214C129.973 22.9807 129.551 22.857 129.033 22.843C128.543 22.8243 128.144 22.9107 127.836 23.102C127.533 23.2933 127.381 23.5523 127.381 23.879C127.381 24.061 127.437 24.2173 127.549 24.348C127.666 24.4787 127.878 24.6023 128.186 24.719C128.499 24.8357 128.951 24.9687 129.544 25.118C130.211 25.286 130.736 25.4703 131.119 25.671C131.506 25.867 131.782 26.1003 131.945 26.371C132.108 26.637 132.19 26.966 132.19 27.358C132.19 28.086 131.922 28.66 131.385 29.08C130.848 29.4953 130.109 29.703 129.166 29.703Z" fill="#1C1919"/>
<rect x="0.5" y="0.5" width="326" height="47" rx="11.5" stroke="#EFD8D7"/>
</svg>
