<svg width="185" height="147" viewBox="0 0 185 147" fill="none" xmlns="http://www.w3.org/2000/svg">
<path d="M34.8377 85.78L35.7054 100.847C35.7054 106.216 38.8274 108.468 43.3388 104.138L55.3092 92.5345C57.9109 92.8812 60.5139 93.054 63.1155 93.054H64.6766C65.8915 93.054 66.7579 92.015 66.7579 90.976V56.3378C66.7579 50.2754 71.6154 45.2535 77.8607 45.2535H108.914C110.302 45.2535 111.342 43.8678 110.995 42.4822C105.79 24.6435 86.3608 11.3077 63.1145 11.3077C35.8775 11.3077 13.8462 29.6657 13.8462 52.1809C13.6732 66.2103 21.9998 78.3334 34.8379 85.78H34.8377Z" fill="#FFD7D3"/>
<path d="M161.478 53.5664H84.6264C79.4217 53.5664 75.2592 57.7233 75.2592 62.9181V108.987C75.2592 114.183 79.423 118.339 84.6264 118.339H148.294C148.987 118.339 149.509 118.511 150.202 118.685C150.895 119.032 151.417 119.552 151.937 120.071L163.04 134.446C163.387 134.793 163.56 135.138 164.081 135.312C167.03 137.217 171.019 135.139 171.019 131.502V62.7451C170.846 57.7231 166.508 53.5664 161.478 53.5664ZM97.2905 92.8808C93.3007 92.8808 90.0043 89.5899 90.0043 85.6068C90.0043 81.6237 93.3007 78.3328 97.2905 78.3328C101.28 78.3328 104.577 81.6237 104.577 85.6068C104.578 89.5899 101.281 92.8808 97.2905 92.8808ZM121.751 92.8808C117.762 92.8808 114.465 89.5899 114.465 85.6068C114.465 81.6237 117.762 78.3328 121.751 78.3328C125.741 78.3328 129.038 81.6237 129.038 85.6068C129.038 89.5899 125.741 92.8808 121.751 92.8808ZM145.519 92.8808C141.529 92.8808 138.233 89.5899 138.233 85.6068C138.233 81.6237 141.529 78.3328 145.519 78.3328C149.509 78.3328 152.805 81.6237 152.805 85.6068C152.805 89.5899 149.682 92.8808 145.519 92.8808Z" fill="#E24444"/>
</svg>
