<svg width="68" height="54" viewBox="0 0 68 54" fill="none" xmlns="http://www.w3.org/2000/svg">
<path d="M57.4648 6.88733H55.5493V10.866H57.4648C58.4225 10.866 59.2434 9.94807 59.2434 8.87689C59.2434 7.80522 58.4226 6.88733 57.4648 6.88733Z" fill="white"/>
<path d="M64.7761 0.183105H49.0416C47.353 0.183105 45.9717 1.56003 45.9717 3.24327V19.0045C45.9717 20.6878 47.353 22.0647 49.0416 22.0647H55.0284V52.8221C55.0284 53.3579 55.4888 53.8169 56.0263 53.8169H57.9452C58.4827 53.8169 58.9432 53.3579 58.9432 52.8221L58.9426 21.9882H64.9294C66.618 21.9882 67.9993 20.6113 67.9993 18.928L67.9998 3.24327C67.8462 1.56003 66.4649 0.183105 64.7762 0.183105H64.7761ZM57.4075 12.9604H55.2584V18.0867H52.8791V4.08516H57.4075C59.8639 4.08516 61.8592 6.07431 61.8592 8.5228C61.8592 10.9714 59.8637 12.9604 57.4075 12.9604Z" fill="white"/>
<path d="M45.8349 26.3498H42.8247L41.3197 19.1577C40.4989 15.179 37.3519 12.4246 33.7261 12.4246L14.0924 12.4251C10.4666 12.4251 7.31965 15.1795 6.49885 19.1582L4.99383 26.3504L1.98365 26.3498C0.888979 26.3498 0 27.3446 0 28.5684V31.4759C0 32.6234 0.752537 33.5419 1.71026 33.6945L3.35223 33.924C3.14703 34.6124 3.07879 35.3778 3.07879 36.2194V51.9807C3.01008 52.9755 3.76261 53.7409 4.58333 53.7409H9.9875C10.74 53.7409 11.3556 53.205 11.4925 52.3639L12.5872 46.7788L35.231 46.7782L36.3257 52.3634C36.4626 53.1287 37.0782 53.7403 37.8307 53.7403H43.2349C44.0556 53.7403 44.8082 52.975 44.8082 51.9807L44.8087 36.2194C44.8087 35.4541 44.6717 34.6894 44.5352 33.924L46.1772 33.6945C47.1349 33.5413 47.8874 32.6234 47.8874 31.4759V28.5684C47.887 27.3441 46.9292 26.3493 45.8345 26.3493L45.8349 26.3498ZM11.0141 20.3057C11.3562 18.6987 12.656 17.5513 14.0924 17.5513H33.7261C35.2312 17.5513 36.4623 18.6988 36.8045 20.3057L38.1044 26.4268C38.3096 27.4979 37.6253 28.4927 36.6675 28.4927L11.2189 28.4922C10.2612 28.4922 9.50866 27.4973 9.78206 26.4262L11.0141 20.3057ZM16.2131 40.4281L9.37208 40.1223C8.82474 40.1223 8.34613 39.5865 8.27741 38.9749C8.20917 37.9801 8.20917 36.5262 8.34565 35.3025C8.41389 34.5371 9.09818 34.0782 9.71373 34.3077C11.8343 34.9198 14.7762 35.8378 16.0075 36.2204C16.4179 36.2968 16.6918 36.6794 16.8283 37.1384L17.2386 38.9748C17.513 39.6633 16.9657 40.5049 16.2132 40.4281L16.2131 40.4281ZM39.541 38.9748C39.541 39.587 39.0619 40.1223 38.4463 40.1223L31.6053 40.4281C30.8528 40.4281 30.3054 39.6628 30.5106 38.898L30.921 37.0616C30.9893 36.6026 31.3314 36.2963 31.7418 36.1436C33.0417 35.761 35.9831 34.9193 38.0355 34.2309C38.6511 34.0014 39.3355 34.5367 39.4036 35.2257C39.6093 36.45 39.6093 37.9801 39.5411 38.9748L39.541 38.9748Z" fill="white"/>
</svg>
