<svg width="112" height="112" viewBox="0 0 112 112" fill="none" xmlns="http://www.w3.org/2000/svg">
<circle cx="56" cy="56" r="56" fill="#F4F4F4"/>
<path d="M62.3 47L65 49.7L49.7 65L47 62.3L62.3 47ZM38 38H74C76.4975 38 78.5 40.0025 78.5 42.5V51.5C76.025 51.5 74 53.525 74 56C74 58.4975 76.025 60.5 78.5 60.5V69.5C78.5 71.9975 76.4975 74 74 74H38C35.525 74 33.5 71.9975 33.5 69.5V60.5C35.9975 60.5 38 58.4975 38 56C38 53.525 35.9975 51.5 33.5 51.5V42.5C33.5 40.0025 35.525 38 38 38ZM38 42.5V48.215C40.79 49.835 42.5 52.7825 42.5 56C42.5 59.2175 40.79 62.1875 38 63.785V69.5H74V63.785C71.21 62.1875 69.5 59.2175 69.5 56C69.5 52.7825 71.21 49.835 74 48.215V42.5H38ZM50.375 47C52.2425 47 53.75 48.5075 53.75 50.375C53.75 52.2425 52.2425 53.75 50.375 53.75C48.5075 53.75 47 52.2425 47 50.375C47 48.5075 48.5075 47 50.375 47ZM61.625 58.25C63.4925 58.25 65 59.7575 65 61.625C65 63.4925 63.4925 65 61.625 65C59.7575 65 58.25 63.4925 58.25 61.625C58.25 59.7575 59.7575 58.25 61.625 58.25Z" fill="#BB0200"/>
</svg>
