<svg width="327" height="40" viewBox="0 0 327 40" fill="none" xmlns="http://www.w3.org/2000/svg">
<rect width="327" height="40" rx="20" fill="#F9E3E0"/>
<path d="M19 17H21V15H19V17ZM20 28C15.59 28 12 24.41 12 20C12 15.59 15.59 12 20 12C24.41 12 28 15.59 28 20C28 24.41 24.41 28 20 28ZM20 10C18.6868 10 17.3864 10.2587 16.1732 10.7612C14.9599 11.2638 13.8575 12.0003 12.9289 12.9289C11.0536 14.8043 10 17.3478 10 20C10 22.6522 11.0536 25.1957 12.9289 27.0711C13.8575 27.9997 14.9599 28.7362 16.1732 29.2388C17.3864 29.7413 18.6868 30 20 30C22.6522 30 25.1957 28.9464 27.0711 27.0711C28.9464 25.1957 30 22.6522 30 20C30 18.6868 29.7413 17.3864 29.2388 16.1732C28.7362 14.9599 27.9997 13.8575 27.0711 12.9289C26.1425 12.0003 25.0401 11.2638 23.8268 10.7612C22.6136 10.2587 21.3132 10 20 10ZM19 25H21V19H19V25Z" fill="#F57600"/>
<path d="M43.066 25V17.374H40.12V16.36H47.08V17.374H44.134V25H43.066ZM52.6493 25V21.754C52.6493 21.446 52.6213 21.15 52.5653 20.866C52.5133 20.582 52.4193 20.328 52.2833 20.104C52.1513 19.876 51.9713 19.696 51.7433 19.564C51.5193 19.432 51.2353 19.366 50.8913 19.366C50.6233 19.366 50.3793 19.412 50.1593 19.504C49.9433 19.592 49.7573 19.728 49.6013 19.912C49.4453 20.096 49.3233 20.328 49.2353 20.608C49.1513 20.884 49.1093 21.21 49.1093 21.586L48.4073 21.37C48.4073 20.742 48.5193 20.204 48.7433 19.756C48.9713 19.304 49.2893 18.958 49.6973 18.718C50.1093 18.474 50.5933 18.352 51.1493 18.352C51.5693 18.352 51.9273 18.418 52.2233 18.55C52.5193 18.682 52.7653 18.858 52.9613 19.078C53.1573 19.294 53.3113 19.538 53.4233 19.81C53.5353 20.078 53.6133 20.352 53.6573 20.632C53.7053 20.908 53.7293 21.17 53.7293 21.418V25H52.6493ZM48.0293 25V16.36H48.9893V21.13H49.1093V25H48.0293ZM58.0972 25.18C57.4612 25.18 56.9052 25.04 56.4292 24.76C55.9572 24.476 55.5892 24.082 55.3252 23.578C55.0612 23.07 54.9292 22.478 54.9292 21.802C54.9292 21.094 55.0592 20.482 55.3192 19.966C55.5792 19.446 55.9412 19.046 56.4052 18.766C56.8732 18.482 57.4212 18.34 58.0492 18.34C58.7012 18.34 59.2552 18.49 59.7112 18.79C60.1712 19.09 60.5152 19.518 60.7432 20.074C60.9752 20.63 61.0752 21.292 61.0432 22.06H59.9632V21.676C59.9512 20.88 59.7892 20.286 59.4772 19.894C59.1652 19.498 58.7012 19.3 58.0852 19.3C57.4252 19.3 56.9232 19.512 56.5792 19.936C56.2352 20.36 56.0632 20.968 56.0632 21.76C56.0632 22.524 56.2352 23.116 56.5792 23.536C56.9232 23.956 57.4132 24.166 58.0492 24.166C58.4772 24.166 58.8492 24.068 59.1652 23.872C59.4812 23.676 59.7292 23.394 59.9092 23.026L60.9352 23.38C60.6832 23.952 60.3032 24.396 59.7952 24.712C59.2912 25.024 58.7252 25.18 58.0972 25.18ZM55.7032 22.06V21.202H60.4912V22.06H55.7032ZM67.7574 25.18C67.1494 25.18 66.6374 25.03 66.2214 24.73C65.8054 24.426 65.4894 24.016 65.2734 23.5C65.0614 22.98 64.9554 22.398 64.9554 21.754C64.9554 21.102 65.0614 20.518 65.2734 20.002C65.4894 19.486 65.8054 19.08 66.2214 18.784C66.6414 18.488 67.1554 18.34 67.7634 18.34C68.3634 18.34 68.8794 18.49 69.3114 18.79C69.7474 19.086 70.0814 19.492 70.3134 20.008C70.5454 20.524 70.6614 21.106 70.6614 21.754C70.6614 22.402 70.5454 22.984 70.3134 23.5C70.0814 24.016 69.7474 24.426 69.3114 24.73C68.8794 25.03 68.3614 25.18 67.7574 25.18ZM64.7754 27.88V18.52H65.7294V23.29H65.8494V27.88H64.7754ZM67.6254 24.202C68.0534 24.202 68.4074 24.094 68.6874 23.878C68.9674 23.662 69.1774 23.37 69.3174 23.002C69.4574 22.63 69.5274 22.214 69.5274 21.754C69.5274 21.298 69.4574 20.886 69.3174 20.518C69.1814 20.15 68.9694 19.858 68.6814 19.642C68.3974 19.426 68.0354 19.318 67.5954 19.318C67.1754 19.318 66.8274 19.422 66.5514 19.63C66.2754 19.834 66.0694 20.12 65.9334 20.488C65.7974 20.852 65.7294 21.274 65.7294 21.754C65.7294 22.226 65.7954 22.648 65.9274 23.02C66.0634 23.388 66.2714 23.678 66.5514 23.89C66.8314 24.098 67.1894 24.202 67.6254 24.202ZM71.9767 25V18.52H72.9307V20.086L72.7747 19.882C72.8507 19.682 72.9487 19.498 73.0687 19.33C73.1927 19.162 73.3307 19.024 73.4827 18.916C73.6507 18.78 73.8407 18.676 74.0527 18.604C74.2647 18.532 74.4807 18.49 74.7007 18.478C74.9207 18.462 75.1267 18.476 75.3187 18.52V19.522C75.0947 19.462 74.8487 19.446 74.5807 19.474C74.3127 19.502 74.0647 19.6 73.8367 19.768C73.6287 19.916 73.4667 20.096 73.3507 20.308C73.2387 20.52 73.1607 20.75 73.1167 20.998C73.0727 21.242 73.0507 21.492 73.0507 21.748V25H71.9767ZM79.0961 25.18C78.4521 25.18 77.8961 25.034 77.4281 24.742C76.9641 24.45 76.6061 24.046 76.3541 23.53C76.1021 23.014 75.9761 22.422 75.9761 21.754C75.9761 21.074 76.1041 20.478 76.3601 19.966C76.6161 19.454 76.9781 19.056 77.4461 18.772C77.9141 18.484 78.4641 18.34 79.0961 18.34C79.7441 18.34 80.3021 18.486 80.7701 18.778C81.2381 19.066 81.5961 19.468 81.8441 19.984C82.0961 20.496 82.2221 21.086 82.2221 21.754C82.2221 22.43 82.0961 23.026 81.8441 23.542C81.5921 24.054 81.2321 24.456 80.7641 24.748C80.2961 25.036 79.7401 25.18 79.0961 25.18ZM79.0961 24.166C79.7681 24.166 80.2681 23.942 80.5961 23.494C80.9241 23.046 81.0881 22.466 81.0881 21.754C81.0881 21.022 80.9221 20.44 80.5901 20.008C80.2581 19.572 79.7601 19.354 79.0961 19.354C78.6441 19.354 78.2721 19.456 77.9801 19.66C77.6881 19.864 77.4701 20.146 77.3261 20.506C77.1821 20.866 77.1101 21.282 77.1101 21.754C77.1101 22.482 77.2781 23.066 77.6141 23.506C77.9501 23.946 78.4441 24.166 79.0961 24.166ZM91.2891 25L91.2951 20.854C91.2951 20.37 91.1651 19.992 90.9051 19.72C90.6491 19.444 90.3151 19.306 89.9031 19.306C89.6631 19.306 89.4351 19.362 89.2191 19.474C89.0031 19.582 88.8271 19.754 88.6911 19.99C88.5551 20.222 88.4871 20.52 88.4871 20.884L87.9231 20.656C87.9151 20.196 88.0091 19.794 88.2051 19.45C88.4051 19.102 88.6771 18.832 89.0211 18.64C89.3651 18.448 89.7531 18.352 90.1851 18.352C90.8611 18.352 91.3931 18.558 91.7811 18.97C92.1691 19.378 92.3631 19.928 92.3631 20.62L92.3571 25H91.2891ZM83.5371 25V18.52H84.4911V20.254H84.6111V25H83.5371ZM87.4191 25L87.4251 20.896C87.4251 20.4 87.2971 20.012 87.0411 19.732C86.7851 19.448 86.4451 19.306 86.0211 19.306C85.6011 19.306 85.2611 19.45 85.0011 19.738C84.7411 20.026 84.6111 20.408 84.6111 20.884L84.0471 20.548C84.0471 20.128 84.1471 19.752 84.3471 19.42C84.5471 19.088 84.8191 18.828 85.1631 18.64C85.5071 18.448 85.8971 18.352 86.3331 18.352C86.7691 18.352 87.1491 18.444 87.4731 18.628C87.7971 18.812 88.0471 19.076 88.2231 19.42C88.3991 19.76 88.4871 20.166 88.4871 20.638L88.4811 25H87.4191ZM96.6273 25.18C95.9833 25.18 95.4273 25.034 94.9593 24.742C94.4953 24.45 94.1373 24.046 93.8853 23.53C93.6333 23.014 93.5073 22.422 93.5073 21.754C93.5073 21.074 93.6353 20.478 93.8913 19.966C94.1473 19.454 94.5093 19.056 94.9773 18.772C95.4453 18.484 95.9953 18.34 96.6273 18.34C97.2753 18.34 97.8333 18.486 98.3013 18.778C98.7693 19.066 99.1273 19.468 99.3753 19.984C99.6273 20.496 99.7533 21.086 99.7533 21.754C99.7533 22.43 99.6273 23.026 99.3753 23.542C99.1233 24.054 98.7633 24.456 98.2953 24.748C97.8273 25.036 97.2713 25.18 96.6273 25.18ZM96.6273 24.166C97.2993 24.166 97.7993 23.942 98.1273 23.494C98.4553 23.046 98.6193 22.466 98.6193 21.754C98.6193 21.022 98.4533 20.44 98.1213 20.008C97.7893 19.572 97.2913 19.354 96.6273 19.354C96.1753 19.354 95.8033 19.456 95.5113 19.66C95.2193 19.864 95.0013 20.146 94.8573 20.506C94.7133 20.866 94.6413 21.282 94.6413 21.754C94.6413 22.482 94.8093 23.066 95.1453 23.506C95.4813 23.946 95.9753 24.166 96.6273 24.166ZM104.857 25L102.877 18.514L103.939 18.52L105.385 23.26L106.843 18.52H107.785L109.237 23.26L110.689 18.52H111.745L109.765 25H108.877L107.311 20.074L105.745 25H104.857ZM112.948 17.374V16.27H114.016V17.374H112.948ZM112.948 25V18.52H114.016V25H112.948ZM115.937 25V16.18H117.005V25H115.937ZM118.925 25V16.18H119.993V25H118.925ZM127.171 25.18C126.563 25.18 126.051 25.03 125.635 24.73C125.219 24.426 124.903 24.016 124.687 23.5C124.475 22.98 124.369 22.398 124.369 21.754C124.369 21.102 124.475 20.518 124.687 20.002C124.903 19.486 125.219 19.08 125.635 18.784C126.055 18.488 126.569 18.34 127.177 18.34C127.777 18.34 128.293 18.49 128.725 18.79C129.161 19.086 129.495 19.492 129.727 20.008C129.959 20.524 130.075 21.106 130.075 21.754C130.075 22.402 129.959 22.984 129.727 23.5C129.495 24.016 129.161 24.426 128.725 24.73C128.293 25.03 127.775 25.18 127.171 25.18ZM124.189 25V16.36H125.263V20.23H125.143V25H124.189ZM127.039 24.202C127.467 24.202 127.821 24.094 128.101 23.878C128.381 23.662 128.591 23.37 128.731 23.002C128.871 22.63 128.941 22.214 128.941 21.754C128.941 21.298 128.871 20.886 128.731 20.518C128.595 20.15 128.383 19.858 128.095 19.642C127.811 19.426 127.449 19.318 127.009 19.318C126.589 19.318 126.241 19.422 125.965 19.63C125.689 19.834 125.483 20.12 125.347 20.488C125.211 20.852 125.143 21.274 125.143 21.754C125.143 22.226 125.209 22.648 125.341 23.02C125.477 23.388 125.685 23.678 125.965 23.89C126.245 24.098 126.603 24.202 127.039 24.202ZM134.199 25.18C133.563 25.18 133.007 25.04 132.531 24.76C132.059 24.476 131.691 24.082 131.427 23.578C131.163 23.07 131.031 22.478 131.031 21.802C131.031 21.094 131.161 20.482 131.421 19.966C131.681 19.446 132.043 19.046 132.507 18.766C132.975 18.482 133.523 18.34 134.151 18.34C134.803 18.34 135.357 18.49 135.813 18.79C136.273 19.09 136.617 19.518 136.845 20.074C137.077 20.63 137.177 21.292 137.145 22.06H136.065V21.676C136.053 20.88 135.891 20.286 135.579 19.894C135.267 19.498 134.803 19.3 134.187 19.3C133.527 19.3 133.025 19.512 132.681 19.936C132.337 20.36 132.165 20.968 132.165 21.76C132.165 22.524 132.337 23.116 132.681 23.536C133.025 23.956 133.515 24.166 134.151 24.166C134.579 24.166 134.951 24.068 135.267 23.872C135.583 23.676 135.831 23.394 136.011 23.026L137.037 23.38C136.785 23.952 136.405 24.396 135.897 24.712C135.393 25.024 134.827 25.18 134.199 25.18ZM131.805 22.06V21.202H136.593V22.06H131.805ZM142.725 25.18C142.241 25.18 141.835 25.092 141.507 24.916C141.183 24.736 140.937 24.5 140.769 24.208C140.605 23.916 140.523 23.596 140.523 23.248C140.523 22.908 140.587 22.614 140.715 22.366C140.847 22.114 141.031 21.906 141.267 21.742C141.503 21.574 141.785 21.442 142.113 21.346C142.421 21.262 142.765 21.19 143.145 21.13C143.529 21.066 143.917 21.008 144.309 20.956C144.701 20.904 145.067 20.854 145.407 20.806L145.023 21.028C145.035 20.452 144.919 20.026 144.675 19.75C144.435 19.474 144.019 19.336 143.427 19.336C143.035 19.336 142.691 19.426 142.395 19.606C142.103 19.782 141.897 20.07 141.777 20.47L140.763 20.164C140.919 19.596 141.221 19.15 141.669 18.826C142.117 18.502 142.707 18.34 143.439 18.34C144.027 18.34 144.531 18.446 144.951 18.658C145.375 18.866 145.679 19.182 145.863 19.606C145.955 19.806 146.013 20.024 146.037 20.26C146.061 20.492 146.073 20.736 146.073 20.992V25H145.125V23.446L145.347 23.59C145.103 24.114 144.761 24.51 144.321 24.778C143.885 25.046 143.353 25.18 142.725 25.18ZM142.887 24.286C143.271 24.286 143.603 24.218 143.883 24.082C144.167 23.942 144.395 23.76 144.567 23.536C144.739 23.308 144.851 23.06 144.903 22.792C144.963 22.592 144.995 22.37 144.999 22.126C145.007 21.878 145.011 21.688 145.011 21.556L145.383 21.718C145.035 21.766 144.693 21.812 144.357 21.856C144.021 21.9 143.703 21.948 143.403 22C143.103 22.048 142.833 22.106 142.593 22.174C142.417 22.23 142.251 22.302 142.095 22.39C141.943 22.478 141.819 22.592 141.723 22.732C141.631 22.868 141.585 23.038 141.585 23.242C141.585 23.418 141.629 23.586 141.717 23.746C141.809 23.906 141.949 24.036 142.137 24.136C142.329 24.236 142.579 24.286 142.887 24.286ZM150.609 25.18C150.001 25.18 149.489 25.03 149.073 24.73C148.657 24.426 148.341 24.016 148.125 23.5C147.913 22.98 147.807 22.398 147.807 21.754C147.807 21.102 147.913 20.518 148.125 20.002C148.341 19.486 148.657 19.08 149.073 18.784C149.493 18.488 150.007 18.34 150.615 18.34C151.215 18.34 151.731 18.49 152.163 18.79C152.599 19.086 152.933 19.492 153.165 20.008C153.397 20.524 153.513 21.106 153.513 21.754C153.513 22.402 153.397 22.984 153.165 23.5C152.933 24.016 152.599 24.426 152.163 24.73C151.731 25.03 151.213 25.18 150.609 25.18ZM147.627 27.88V18.52H148.581V23.29H148.701V27.88H147.627ZM150.477 24.202C150.905 24.202 151.259 24.094 151.539 23.878C151.819 23.662 152.029 23.37 152.169 23.002C152.309 22.63 152.379 22.214 152.379 21.754C152.379 21.298 152.309 20.886 152.169 20.518C152.033 20.15 151.821 19.858 151.533 19.642C151.249 19.426 150.887 19.318 150.447 19.318C150.027 19.318 149.679 19.422 149.403 19.63C149.127 19.834 148.921 20.12 148.785 20.488C148.649 20.852 148.581 21.274 148.581 21.754C148.581 22.226 148.647 22.648 148.779 23.02C148.915 23.388 149.123 23.678 149.403 23.89C149.683 24.098 150.041 24.202 150.477 24.202ZM157.804 25.18C157.196 25.18 156.684 25.03 156.268 24.73C155.852 24.426 155.536 24.016 155.32 23.5C155.108 22.98 155.002 22.398 155.002 21.754C155.002 21.102 155.108 20.518 155.32 20.002C155.536 19.486 155.852 19.08 156.268 18.784C156.688 18.488 157.202 18.34 157.81 18.34C158.41 18.34 158.926 18.49 159.358 18.79C159.794 19.086 160.128 19.492 160.36 20.008C160.592 20.524 160.708 21.106 160.708 21.754C160.708 22.402 160.592 22.984 160.36 23.5C160.128 24.016 159.794 24.426 159.358 24.73C158.926 25.03 158.408 25.18 157.804 25.18ZM154.822 27.88V18.52H155.776V23.29H155.896V27.88H154.822ZM157.672 24.202C158.1 24.202 158.454 24.094 158.734 23.878C159.014 23.662 159.224 23.37 159.364 23.002C159.504 22.63 159.574 22.214 159.574 21.754C159.574 21.298 159.504 20.886 159.364 20.518C159.228 20.15 159.016 19.858 158.728 19.642C158.444 19.426 158.082 19.318 157.642 19.318C157.222 19.318 156.874 19.422 156.598 19.63C156.322 19.834 156.116 20.12 155.98 20.488C155.844 20.852 155.776 21.274 155.776 21.754C155.776 22.226 155.842 22.648 155.974 23.02C156.11 23.388 156.318 23.678 156.598 23.89C156.878 24.098 157.236 24.202 157.672 24.202ZM162.144 25V16.18H163.212V25H162.144ZM165.132 17.374V16.27H166.2V17.374H165.132ZM165.132 25V18.52H166.2V25H165.132ZM170.808 25.18C170.172 25.18 169.616 25.04 169.14 24.76C168.668 24.476 168.3 24.082 168.036 23.578C167.772 23.07 167.64 22.478 167.64 21.802C167.64 21.094 167.77 20.482 168.03 19.966C168.29 19.446 168.652 19.046 169.116 18.766C169.584 18.482 170.132 18.34 170.76 18.34C171.412 18.34 171.966 18.49 172.422 18.79C172.882 19.09 173.226 19.518 173.454 20.074C173.686 20.63 173.786 21.292 173.754 22.06H172.674V21.676C172.662 20.88 172.5 20.286 172.188 19.894C171.876 19.498 171.412 19.3 170.796 19.3C170.136 19.3 169.634 19.512 169.29 19.936C168.946 20.36 168.774 20.968 168.774 21.76C168.774 22.524 168.946 23.116 169.29 23.536C169.634 23.956 170.124 24.166 170.76 24.166C171.188 24.166 171.56 24.068 171.876 23.872C172.192 23.676 172.44 23.394 172.62 23.026L173.646 23.38C173.394 23.952 173.014 24.396 172.506 24.712C172.002 25.024 171.436 25.18 170.808 25.18ZM168.414 22.06V21.202H173.202V22.06H168.414ZM177.634 25.18C177.03 25.18 176.512 25.03 176.08 24.73C175.648 24.426 175.314 24.016 175.078 23.5C174.846 22.984 174.73 22.402 174.73 21.754C174.73 21.106 174.846 20.524 175.078 20.008C175.314 19.492 175.648 19.086 176.08 18.79C176.512 18.49 177.028 18.34 177.628 18.34C178.24 18.34 178.754 18.488 179.17 18.784C179.586 19.08 179.9 19.486 180.112 20.002C180.328 20.518 180.436 21.102 180.436 21.754C180.436 22.398 180.328 22.98 180.112 23.5C179.9 24.016 179.586 24.426 179.17 24.73C178.754 25.03 178.242 25.18 177.634 25.18ZM177.766 24.202C178.202 24.202 178.56 24.098 178.84 23.89C179.12 23.678 179.326 23.388 179.458 23.02C179.594 22.648 179.662 22.226 179.662 21.754C179.662 21.274 179.594 20.852 179.458 20.488C179.326 20.12 179.122 19.834 178.846 19.63C178.57 19.422 178.22 19.318 177.796 19.318C177.356 19.318 176.992 19.426 176.704 19.642C176.42 19.858 176.208 20.15 176.068 20.518C175.932 20.886 175.864 21.298 175.864 21.754C175.864 22.214 175.934 22.63 176.074 23.002C176.214 23.37 176.424 23.662 176.704 23.878C176.988 24.094 177.342 24.202 177.766 24.202ZM179.662 25V20.23H179.542V16.36H180.616V25H179.662ZM188.317 25C187.933 25.076 187.553 25.106 187.177 25.09C186.805 25.078 186.473 25.004 186.181 24.868C185.889 24.728 185.667 24.512 185.515 24.22C185.387 23.964 185.317 23.706 185.305 23.446C185.297 23.182 185.293 22.884 185.293 22.552V16.72H186.361V22.504C186.361 22.768 186.363 22.994 186.367 23.182C186.375 23.37 186.417 23.532 186.493 23.668C186.637 23.924 186.865 24.074 187.177 24.118C187.493 24.162 187.873 24.15 188.317 24.082V25ZM183.979 19.402V18.52H188.317V19.402H183.979ZM192.123 25.18C191.479 25.18 190.923 25.034 190.455 24.742C189.991 24.45 189.633 24.046 189.381 23.53C189.129 23.014 189.003 22.422 189.003 21.754C189.003 21.074 189.131 20.478 189.387 19.966C189.643 19.454 190.005 19.056 190.473 18.772C190.941 18.484 191.491 18.34 192.123 18.34C192.771 18.34 193.329 18.486 193.797 18.778C194.265 19.066 194.623 19.468 194.871 19.984C195.123 20.496 195.249 21.086 195.249 21.754C195.249 22.43 195.123 23.026 194.871 23.542C194.619 24.054 194.259 24.456 193.791 24.748C193.323 25.036 192.767 25.18 192.123 25.18ZM192.123 24.166C192.795 24.166 193.295 23.942 193.623 23.494C193.951 23.046 194.115 22.466 194.115 21.754C194.115 21.022 193.949 20.44 193.617 20.008C193.285 19.572 192.787 19.354 192.123 19.354C191.671 19.354 191.299 19.456 191.007 19.66C190.715 19.864 190.497 20.146 190.353 20.506C190.209 20.866 190.137 21.282 190.137 21.754C190.137 22.482 190.305 23.066 190.641 23.506C190.977 23.946 191.471 24.166 192.123 24.166ZM199.873 27.88L201.127 24.472L201.145 25.48L198.313 18.52H199.435L201.655 24.118H201.271L203.353 18.52H204.439L200.911 27.88H199.873ZM207.955 25.18C207.311 25.18 206.755 25.034 206.287 24.742C205.823 24.45 205.465 24.046 205.213 23.53C204.961 23.014 204.835 22.422 204.835 21.754C204.835 21.074 204.963 20.478 205.219 19.966C205.475 19.454 205.837 19.056 206.305 18.772C206.773 18.484 207.323 18.34 207.955 18.34C208.603 18.34 209.161 18.486 209.629 18.778C210.097 19.066 210.455 19.468 210.703 19.984C210.955 20.496 211.081 21.086 211.081 21.754C211.081 22.43 210.955 23.026 210.703 23.542C210.451 24.054 210.091 24.456 209.623 24.748C209.155 25.036 208.599 25.18 207.955 25.18ZM207.955 24.166C208.627 24.166 209.127 23.942 209.455 23.494C209.783 23.046 209.947 22.466 209.947 21.754C209.947 21.022 209.781 20.44 209.449 20.008C209.117 19.572 208.619 19.354 207.955 19.354C207.503 19.354 207.131 19.456 206.839 19.66C206.547 19.864 206.329 20.146 206.185 20.506C206.041 20.866 205.969 21.282 205.969 21.754C205.969 22.482 206.137 23.066 206.473 23.506C206.809 23.946 207.303 24.166 207.955 24.166ZM214.863 25.168C214.447 25.168 214.089 25.102 213.789 24.97C213.493 24.838 213.247 24.662 213.051 24.442C212.855 24.222 212.701 23.978 212.589 23.71C212.477 23.442 212.397 23.168 212.349 22.888C212.305 22.608 212.283 22.346 212.283 22.102V18.52H213.363V21.766C213.363 22.07 213.391 22.364 213.447 22.648C213.503 22.932 213.597 23.188 213.729 23.416C213.865 23.644 214.045 23.824 214.269 23.956C214.497 24.088 214.781 24.154 215.121 24.154C215.389 24.154 215.633 24.108 215.853 24.016C216.073 23.924 216.261 23.788 216.417 23.608C216.573 23.424 216.693 23.192 216.777 22.912C216.861 22.632 216.903 22.306 216.903 21.934L217.605 22.15C217.605 22.774 217.491 23.312 217.263 23.764C217.039 24.216 216.721 24.564 216.309 24.808C215.901 25.048 215.419 25.168 214.863 25.168ZM217.023 25V23.266H216.903V18.52H217.977V25H217.023ZM219.656 25V18.52H220.61V20.086L220.454 19.882C220.53 19.682 220.628 19.498 220.748 19.33C220.872 19.162 221.01 19.024 221.162 18.916C221.33 18.78 221.52 18.676 221.732 18.604C221.944 18.532 222.16 18.49 222.38 18.478C222.6 18.462 222.806 18.476 222.998 18.52V19.522C222.774 19.462 222.528 19.446 222.26 19.474C221.992 19.502 221.744 19.6 221.516 19.768C221.308 19.916 221.146 20.096 221.03 20.308C220.918 20.52 220.84 20.75 220.796 20.998C220.752 21.242 220.73 21.492 220.73 21.748V25H219.656ZM231.149 25V21.754C231.149 21.446 231.121 21.15 231.065 20.866C231.013 20.582 230.919 20.328 230.783 20.104C230.651 19.876 230.471 19.696 230.243 19.564C230.019 19.432 229.735 19.366 229.391 19.366C229.123 19.366 228.879 19.412 228.659 19.504C228.443 19.592 228.257 19.728 228.101 19.912C227.945 20.096 227.823 20.328 227.735 20.608C227.651 20.884 227.609 21.21 227.609 21.586L226.907 21.37C226.907 20.742 227.019 20.204 227.243 19.756C227.471 19.304 227.789 18.958 228.197 18.718C228.609 18.474 229.093 18.352 229.649 18.352C230.069 18.352 230.427 18.418 230.723 18.55C231.019 18.682 231.265 18.858 231.461 19.078C231.657 19.294 231.811 19.538 231.923 19.81C232.035 20.078 232.113 20.352 232.157 20.632C232.205 20.908 232.229 21.17 232.229 21.418V25H231.149ZM226.529 25V18.52H227.489V20.254H227.609V25H226.529ZM236.539 25.18C235.903 25.18 235.347 25.04 234.871 24.76C234.399 24.476 234.031 24.082 233.767 23.578C233.503 23.07 233.371 22.478 233.371 21.802C233.371 21.094 233.501 20.482 233.761 19.966C234.021 19.446 234.383 19.046 234.847 18.766C235.315 18.482 235.863 18.34 236.491 18.34C237.143 18.34 237.697 18.49 238.153 18.79C238.613 19.09 238.957 19.518 239.185 20.074C239.417 20.63 239.517 21.292 239.485 22.06H238.405V21.676C238.393 20.88 238.231 20.286 237.919 19.894C237.607 19.498 237.143 19.3 236.527 19.3C235.867 19.3 235.365 19.512 235.021 19.936C234.677 20.36 234.505 20.968 234.505 21.76C234.505 22.524 234.677 23.116 235.021 23.536C235.365 23.956 235.855 24.166 236.491 24.166C236.919 24.166 237.291 24.068 237.607 23.872C237.923 23.676 238.171 23.394 238.351 23.026L239.377 23.38C239.125 23.952 238.745 24.396 238.237 24.712C237.733 25.024 237.167 25.18 236.539 25.18ZM234.145 22.06V21.202H238.933V22.06H234.145ZM239.866 25L242.344 21.724L239.92 18.52H241.192L242.968 20.896L244.726 18.52H245.998L243.574 21.724L246.058 25H244.78L242.968 22.552L241.144 25H239.866ZM250.638 25C250.254 25.076 249.874 25.106 249.498 25.09C249.126 25.078 248.794 25.004 248.502 24.868C248.21 24.728 247.988 24.512 247.836 24.22C247.708 23.964 247.638 23.706 247.626 23.446C247.618 23.182 247.614 22.884 247.614 22.552V16.72H248.682V22.504C248.682 22.768 248.684 22.994 248.688 23.182C248.696 23.37 248.738 23.532 248.814 23.668C248.958 23.924 249.186 24.074 249.498 24.118C249.814 24.162 250.194 24.15 250.638 24.082V25ZM246.3 19.402V18.52H250.638V19.402H246.3ZM257.974 25C257.59 25.076 257.21 25.106 256.834 25.09C256.462 25.078 256.13 25.004 255.838 24.868C255.546 24.728 255.324 24.512 255.172 24.22C255.044 23.964 254.974 23.706 254.962 23.446C254.954 23.182 254.95 22.884 254.95 22.552V16.72H256.018V22.504C256.018 22.768 256.02 22.994 256.024 23.182C256.032 23.37 256.074 23.532 256.15 23.668C256.294 23.924 256.522 24.074 256.834 24.118C257.15 24.162 257.53 24.15 257.974 24.082V25ZM253.636 19.402V18.52H257.974V19.402H253.636ZM259.289 25V18.52H260.243V20.086L260.087 19.882C260.163 19.682 260.261 19.498 260.381 19.33C260.505 19.162 260.643 19.024 260.795 18.916C260.963 18.78 261.153 18.676 261.365 18.604C261.577 18.532 261.793 18.49 262.013 18.478C262.233 18.462 262.439 18.476 262.631 18.52V19.522C262.407 19.462 262.161 19.446 261.893 19.474C261.625 19.502 261.377 19.6 261.149 19.768C260.941 19.916 260.779 20.096 260.663 20.308C260.551 20.52 260.473 20.75 260.429 20.998C260.385 21.242 260.363 21.492 260.363 21.748V25H259.289ZM263.886 17.374V16.27H264.954V17.374H263.886ZM263.886 25V18.52H264.954V25H263.886ZM269.73 25.18C269.122 25.18 268.61 25.03 268.194 24.73C267.778 24.426 267.462 24.016 267.246 23.5C267.034 22.98 266.928 22.398 266.928 21.754C266.928 21.102 267.034 20.518 267.246 20.002C267.462 19.486 267.778 19.08 268.194 18.784C268.614 18.488 269.128 18.34 269.736 18.34C270.336 18.34 270.852 18.49 271.284 18.79C271.72 19.086 272.054 19.492 272.286 20.008C272.518 20.524 272.634 21.106 272.634 21.754C272.634 22.402 272.518 22.984 272.286 23.5C272.054 24.016 271.72 24.426 271.284 24.73C270.852 25.03 270.334 25.18 269.73 25.18ZM266.748 27.88V18.52H267.702V23.29H267.822V27.88H266.748ZM269.598 24.202C270.026 24.202 270.38 24.094 270.66 23.878C270.94 23.662 271.15 23.37 271.29 23.002C271.43 22.63 271.5 22.214 271.5 21.754C271.5 21.298 271.43 20.886 271.29 20.518C271.154 20.15 270.942 19.858 270.654 19.642C270.37 19.426 270.008 19.318 269.568 19.318C269.148 19.318 268.8 19.422 268.524 19.63C268.248 19.834 268.042 20.12 267.906 20.488C267.77 20.852 267.702 21.274 267.702 21.754C267.702 22.226 267.768 22.648 267.9 23.02C268.036 23.388 268.244 23.678 268.524 23.89C268.804 24.098 269.162 24.202 269.598 24.202Z" fill="#1C1919"/>
</svg>
