<svg width="22" height="21" viewBox="0 0 22 21" fill="none" xmlns="http://www.w3.org/2000/svg">
<path d="M22.0003 6.5L15.5303 5.96L13.0003 0L10.4703 5.96L4.00034 6.5L8.90034 10.77L7.44034 17.1L13.0003 13.74L18.5603 17.1L17.0903 10.77L22.0003 6.5ZM15.1403 11.23L15.5403 12.94L14.0303 12.03L13.0003 11.41L11.9703 12.03L10.4603 12.94L10.8503 11.23L11.1303 10.05L10.2203 9.26L8.88034 8.1L10.6403 7.95L11.8403 7.85L12.3103 6.74L13.0003 5.12L13.6903 6.74L14.1603 7.85L15.3603 7.95L17.1103 8.1L15.7803 9.26L14.8603 10.05L15.1403 11.23ZM0.160338 11C-0.138662 10.5 -0.0106617 9.89 0.450338 9.59L3.18034 7.79L4.75034 9.15L1.55034 11.26C1.38034 11.37 1.19034 11.43 1.00034 11.43C0.680338 11.43 0.360338 11.27 0.160338 11ZM0.450338 19.16L6.31034 15.31L6.00034 16.76L5.66034 18.13L1.55034 20.84C1.38034 20.95 1.19034 21 1.00034 21C0.680338 21 0.360338 20.84 0.160338 20.55C-0.138662 20.09 -0.0106617 19.47 0.450338 19.16ZM6.32034 10.5L7.24034 11.31L6.97034 12.5L1.55034 16.05C1.38034 16.16 1.19034 16.21 1.00034 16.21C0.680338 16.21 0.360338 16.06 0.160338 15.76C-0.138662 15.3 -0.0106617 14.68 0.450338 14.38L6.32034 10.5Z" fill="#B8560F"/>
</svg>
