<svg width="48" height="48" viewBox="0 0 48 48" fill="none" xmlns="http://www.w3.org/2000/svg">
<circle cx="24" cy="24" r="24" fill="#FFE1D8"/>
<path d="M33.088 27.9783C34.1963 25.4466 34.1963 22.5416 33.088 20.0216L29.8913 21.4683C30.5913 23.0783 30.5913 24.91 29.903 26.5316L33.088 27.9783ZM27.9897 14.9116C25.458 13.8033 22.553 13.8033 20.0213 14.9116L21.468 18.0966C23.0897 17.4083 24.9213 17.4083 26.543 18.1083L27.9897 14.9116ZM14.9113 20.01C13.803 22.5533 13.803 25.4466 14.9113 27.99L18.108 26.5316C17.408 24.9216 17.408 23.0783 18.108 21.4566L14.9113 20.01ZM20.0213 33.0883C22.553 34.1966 25.458 34.1966 27.9897 33.0766L26.543 29.8916C24.933 30.5916 23.0897 30.5916 21.4797 29.9033L20.0213 33.0883ZM23.9997 12.3333C25.5318 12.3333 27.0489 12.6351 28.4643 13.2214C29.8798 13.8077 31.1659 14.6671 32.2493 15.7504C33.3326 16.8338 34.192 18.1199 34.7783 19.5353C35.3646 20.9508 35.6663 22.4679 35.6663 24C35.6663 27.0942 34.4372 30.0616 32.2493 32.2496C30.0613 34.4375 27.0939 35.6666 23.9997 35.6666C22.4676 35.6666 20.9505 35.3649 19.535 34.7786C18.1196 34.1923 16.8334 33.3329 15.7501 32.2496C13.5622 30.0616 12.333 27.0942 12.333 24C12.333 20.9058 13.5622 17.9383 15.7501 15.7504C17.938 13.5625 20.9055 12.3333 23.9997 12.3333ZM23.9997 19.3333C22.762 19.3333 21.575 19.825 20.6998 20.7001C19.8247 21.5753 19.333 22.7623 19.333 24C19.333 25.2377 19.8247 26.4246 20.6998 27.2998C21.575 28.175 22.762 28.6666 23.9997 28.6666C25.2374 28.6666 26.4243 28.175 27.2995 27.2998C28.1747 26.4246 28.6663 25.2377 28.6663 24C28.6663 22.7623 28.1747 21.5753 27.2995 20.7001C26.4243 19.825 25.2374 19.3333 23.9997 19.3333Z" fill="#D16A49"/>
</svg>
