<svg width="92" height="92" viewBox="0 0 92 92" fill="none" xmlns="http://www.w3.org/2000/svg">
<circle cx="46" cy="46" r="46" fill="#FFF3F1"/>
<path d="M59.44 51.52C60.14 49.82 60.52 48 60.52 46C60.52 44.56 60.3 43.18 59.92 41.9C58.62 42.2 57.26 42.36 55.84 42.36C49.72 42.36 44.3 39.34 41 34.68C39.22 39 35.82 42.52 31.54 44.44C31.46 44.94 31.46 45.48 31.46 46C31.46 49.8563 32.9919 53.5546 35.7187 56.2814C38.4454 59.0081 42.1438 60.54 46 60.54C48.1 60.54 50.12 60.08 51.94 59.26C53.08 61.44 53.6 62.52 53.56 62.52C50.28 63.62 47.74 64.16 46 64.16C41.16 64.16 36.54 62.26 33.14 58.84C31.06 56.76 29.52 54.22 28.66 51.46H26V42.36H28.18C29.86 34.08 37.2 27.84 46 27.84C50.8 27.84 55.42 29.74 58.84 33.16C61.38 35.68 63.08 38.9 63.78 42.36H66V51.34V51.38V51.46H65.88L58.76 58L48.16 56.8V53.46H57.82L59.44 51.52ZM40.54 45.54C41.14 45.54 41.72 45.78 42.14 46.22C42.56 46.64 42.8 47.22 42.8 47.82C42.8 48.42 42.56 49 42.14 49.42C41.72 49.84 41.14 50.08 40.54 50.08C39.28 50.08 38.26 49.08 38.26 47.82C38.26 46.56 39.28 45.54 40.54 45.54ZM51.44 45.54C52.7 45.54 53.7 46.56 53.7 47.82C53.7 49.08 52.7 50.08 51.44 50.08C50.18 50.08 49.16 49.08 49.16 47.82C49.16 47.2153 49.4002 46.6354 49.8278 46.2078C50.2554 45.7802 50.8353 45.54 51.44 45.54Z" fill="#BB0200"/>
</svg>
