<svg width="104" height="136" viewBox="0 0 104 136" fill="none" xmlns="http://www.w3.org/2000/svg">
<path fill-rule="evenodd" clip-rule="evenodd" d="M78.6047 51.7489C78.6047 66.3713 66.6933 78.2251 52 78.2251C43.7985 78.2251 36.4637 74.5319 31.5834 68.7254L29.5853 65.9345L29.5492 65.9609C26.9192 61.8549 25.3953 56.979 25.3953 51.7489C25.3953 37.1265 37.3067 25.2727 52 25.2727C66.6933 25.2727 78.6047 37.1265 78.6047 51.7489ZM12.4542 85.3532C7.25581 77.6234 0 64.5753 0 51.7489C0 23.1688 23.2812 0 52 0C80.7188 0 104 23.1688 104 51.7489C104 78.8711 83.0336 101.12 56.3504 103.319L66.5116 117.512L50.5 136L12.4542 85.3532Z" fill="#BB0200"/>
</svg>
