<svg width="84" height="106" viewBox="0 0 84 106" fill="none" xmlns="http://www.w3.org/2000/svg">
<path fill-rule="evenodd" clip-rule="evenodd" d="M63.084 40.4155C63.084 51.7388 53.6442 60.9181 41.9996 60.9181C35.4998 60.9181 29.6869 58.0581 25.8192 53.5617L24.2357 51.4005L24.2071 51.421C22.1228 48.2414 20.9151 44.4656 20.9151 40.4155C20.9151 29.0922 30.355 19.9128 41.9996 19.9128C53.6442 19.9128 63.084 29.0922 63.084 40.4155ZM10.6592 66.438C6.53937 60.4522 0.789062 50.3479 0.789062 40.4155C0.789062 18.2836 19.2396 0.342102 41.9996 0.342102C64.7595 0.342102 83.2101 18.2836 83.2101 40.4155C83.2101 61.4183 66.594 78.6474 45.4473 80.3506L53.5002 91.3413L40.8108 105.658L10.6592 66.438Z" fill="#BB0200"/>
</svg>
