<svg width="20" height="20" viewBox="0 0 20 20" fill="none" xmlns="http://www.w3.org/2000/svg">
<path d="M9 6.99994H11V4.99994H9V6.99994ZM10 17.9999C5.59 17.9999 2 14.4099 2 9.99994C2 5.58994 5.59 1.99994 10 1.99994C14.41 1.99994 18 5.58994 18 9.99994C18 14.4099 14.41 17.9999 10 17.9999ZM10 -6.10352e-05C8.68678 -6.10352e-05 7.38642 0.258597 6.17317 0.761144C4.95991 1.26369 3.85752 2.00029 2.92893 2.92887C1.05357 4.80423 0 7.34777 0 9.99994C0 12.6521 1.05357 15.1956 2.92893 17.071C3.85752 17.9996 4.95991 18.7362 6.17317 19.2387C7.38642 19.7413 8.68678 19.9999 10 19.9999C12.6522 19.9999 15.1957 18.9464 17.0711 17.071C18.9464 15.1956 20 12.6521 20 9.99994C20 8.68672 19.7413 7.38636 19.2388 6.1731C18.7362 4.95985 17.9997 3.85746 17.0711 2.92887C16.1425 2.00029 15.0401 1.26369 13.8268 0.761144C12.6136 0.258597 11.3132 -6.10352e-05 10 -6.10352e-05ZM9 14.9999H11V8.99994H9V14.9999Z" fill="#B4267B"/>
</svg>
