<svg width="92" height="92" viewBox="0 0 92 92" fill="none" xmlns="http://www.w3.org/2000/svg">
<circle cx="46" cy="46" r="46" fill="#FFF3F1"/>
<g clip-path="url(#clip0_122_2046)">
<path d="M51 62.6666H54.3333V66H51V62.6666ZM44.3333 62.6666H47.6667V66H44.3333V62.6666ZM37.6667 62.6666H41V66H37.6667V62.6666ZM34.3333 44.3333L36.8333 36.8333H55.1667L57.6667 44.3333H34.3333ZM55.1667 52.6666C54.5036 52.6666 53.8677 52.4033 53.3989 51.9344C52.9301 51.4656 52.6667 50.8297 52.6667 50.1666C52.6667 49.5036 52.9301 48.8677 53.3989 48.3989C53.8677 47.93 54.5036 47.6666 55.1667 47.6666C55.8297 47.6666 56.4656 47.93 56.9344 48.3989C57.4033 48.8677 57.6667 49.5036 57.6667 50.1666C57.6667 50.8297 57.4033 51.4656 56.9344 51.9344C56.4656 52.4033 55.8297 52.6666 55.1667 52.6666ZM36.8333 52.6666C36.1703 52.6666 35.5344 52.4033 35.0656 51.9344C34.5967 51.4656 34.3333 50.8297 34.3333 50.1666C34.3333 49.5036 34.5967 48.8677 35.0656 48.3989C35.5344 47.93 36.1703 47.6666 36.8333 47.6666C37.4964 47.6666 38.1323 47.93 38.6011 48.3989C39.0699 48.8677 39.3333 49.5036 39.3333 50.1666C39.3333 50.8297 39.0699 51.4656 38.6011 51.9344C38.1323 52.4033 37.4964 52.6666 36.8333 52.6666ZM57.5333 36C57.2 35.0333 56.2667 34.3333 55.1667 34.3333H36.8333C35.7333 34.3333 34.8 35.0333 34.4667 36L31 46V59.3333C31 59.7753 31.1756 60.1993 31.4882 60.5118C31.8007 60.8244 32.2246 61 32.6667 61H34.3333C34.7754 61 35.1993 60.8244 35.5118 60.5118C35.8244 60.1993 36 59.7753 36 59.3333V57.6666H56V59.3333C56 59.7753 56.1756 60.1993 56.4882 60.5118C56.8007 60.8244 57.2246 61 57.6667 61H59.3333C59.7754 61 60.1993 60.8244 60.5118 60.5118C60.8244 60.1993 61 59.7753 61 59.3333V46L57.5333 36Z" fill="#BB0200"/>
</g>
<defs>
<clipPath id="clip0_122_2046">
<rect width="40" height="40" fill="white" transform="translate(26 26)"/>
</clipPath>
</defs>
</svg>
