<svg width="56" height="56" viewBox="0 0 56 56" fill="none" xmlns="http://www.w3.org/2000/svg">
<rect x="1" y="1" width="54" height="54" rx="27" fill="black" fill-opacity="0.32"/>
<path d="M30.06 25L31 25.94L21.92 35H21V34.08L30.06 25ZM33.66 19C33.41 19 33.15 19.1 32.96 19.29L31.13 21.12L34.88 24.87L36.71 23.04C37.1 22.65 37.1 22 36.71 21.63L34.37 19.29C34.17 19.09 33.92 19 33.66 19ZM30.06 22.19L19 33.25V37H22.75L33.81 25.94L30.06 22.19Z" fill="white"/>
<rect x="1" y="1" width="54" height="54" rx="27" stroke="white" stroke-width="2"/>
</svg>
