<svg width="20" height="20" viewBox="0 0 20 20" fill="none" xmlns="http://www.w3.org/2000/svg">
<path d="M18 4.00006H2V2.00006H18V4.00006ZM18 14.0001H2V8.00006H18V14.0001ZM18 6.10352e-05H2C0.89 6.10352e-05 0 0.890061 0 2.00006V14.0001C0 14.5305 0.210714 15.0392 0.585786 15.4143C0.960859 15.7893 1.46957 16.0001 2 16.0001H18C18.5304 16.0001 19.0391 15.7893 19.4142 15.4143C19.7893 15.0392 20 14.5305 20 14.0001V2.00006C20 0.890061 19.1 6.10352e-05 18 6.10352e-05ZM5 18.0001H7V20.0001H5V18.0001ZM9 18.0001H11V20.0001H9V18.0001ZM13 18.0001H15V20.0001H13V18.0001Z" fill="#8A44E2"/>
</svg>
