<svg width="20" height="16" viewBox="0 0 20 16" fill="none" xmlns="http://www.w3.org/2000/svg">
<path d="M16 16.0001H12L16 0.00012207H20L16 16.0001ZM14 0.00012207H10L6 16.0001H10L14 0.00012207ZM0 12.5001C0 13.1632 0.263392 13.799 0.732233 14.2679C1.20107 14.7367 1.83696 15.0001 2.5 15.0001C2.8283 15.0001 3.15339 14.9355 3.45671 14.8098C3.76002 14.6842 4.03562 14.5 4.26777 14.2679C4.49991 14.0357 4.68406 13.7601 4.8097 13.4568C4.93534 13.1535 5 12.8284 5 12.5001C5 12.1718 4.93534 11.8467 4.8097 11.5434C4.68406 11.2401 4.49991 10.9645 4.26777 10.7324C4.03562 10.5002 3.76002 10.3161 3.45671 10.1904C3.15339 10.0648 2.8283 10.0001 2.5 10.0001C1.83696 10.0001 1.20107 10.2635 0.732233 10.7324C0.263392 11.2012 0 11.8371 0 12.5001V12.5001ZM0 5.50012C0 5.82843 0.0646644 6.15352 0.190301 6.45683C0.315938 6.76014 0.500087 7.03574 0.732233 7.26789C1.20107 7.73673 1.83696 8.00012 2.5 8.00012C2.8283 8.00012 3.15339 7.93546 3.45671 7.80982C3.76002 7.68418 4.03562 7.50004 4.26777 7.26789C4.49991 7.03574 4.68406 6.76014 4.8097 6.45683C4.93534 6.15352 5 5.82843 5 5.50012C5 5.17182 4.93534 4.84673 4.8097 4.54341C4.68406 4.2401 4.49991 3.9645 4.26777 3.73236C4.03562 3.50021 3.76002 3.31606 3.45671 3.19042C3.15339 3.06479 2.8283 3.00012 2.5 3.00012C1.83696 3.00012 1.20107 3.26351 0.732233 3.73236C0.263392 4.2012 0 4.83708 0 5.50012V5.50012Z" fill="#1E84A4"/>
</svg>
