<svg width="20" height="22" viewBox="0 0 20 22" fill="none" xmlns="http://www.w3.org/2000/svg">
<path d="M20 6.99994V15.9999C20 17.0999 19.1 17.9999 18 17.9999H4L0 21.9999V3.99994C0 2.89994 0.9 1.99994 2 1.99994H12.1C12 2.29994 12 2.69994 12 2.99994C12 3.29994 12 3.69994 12.1 3.99994H2V15.9999H18V7.89994C18.7 7.79994 19.4 7.39994 20 6.99994ZM14 2.99994C14 4.69994 15.3 5.99994 17 5.99994C18.7 5.99994 20 4.69994 20 2.99994C20 1.29994 18.7 -6.10352e-05 17 -6.10352e-05C15.3 -6.10352e-05 14 1.29994 14 2.99994Z" fill="#0F5CB8"/>
</svg>
