<svg width="241" height="241" viewBox="0 0 241 241" fill="none" xmlns="http://www.w3.org/2000/svg">
<path d="M86.3526 10.3184C107.249 -2.72708 133.751 -2.72708 154.647 10.3184C160.692 14.0923 167.321 16.8381 174.264 18.444C198.265 23.9951 217.005 42.7354 222.556 66.7357C224.162 73.6788 226.908 80.3076 230.682 86.3526C243.727 107.249 243.727 133.751 230.682 154.647C226.908 160.692 224.162 167.321 222.556 174.264C217.005 198.265 198.265 217.005 174.264 222.556C167.321 224.162 160.692 226.908 154.647 230.682C133.751 243.727 107.249 243.727 86.3526 230.682C80.3076 226.908 73.6788 224.162 66.7357 222.556C42.7354 217.005 23.9951 198.265 18.444 174.264C16.8381 167.321 14.0923 160.692 10.3184 154.647C-2.72708 133.751 -2.72708 107.249 10.3184 86.3526C14.0923 80.3076 16.8381 73.6788 18.444 66.7357C23.9951 42.7354 42.7354 23.9951 66.7357 18.444C73.6788 16.8381 80.3076 14.0923 86.3526 10.3184Z" fill="#FF8F8F"/>
</svg>
