<svg width="263" height="263" viewBox="0 0 263 263" fill="none" xmlns="http://www.w3.org/2000/svg">
<mask id="mask0_24_1340" style="mask-type:alpha" maskUnits="userSpaceOnUse" x="11" y="11" width="241" height="241">
<path d="M97.3526 21.3184C118.249 8.27292 144.751 8.27292 165.647 21.3184C171.692 25.0923 178.321 27.8381 185.264 29.444C209.265 34.9951 228.005 53.7354 233.556 77.7357C235.162 84.6788 237.908 91.3076 241.682 97.3526C254.727 118.249 254.727 144.751 241.682 165.647C237.908 171.692 235.162 178.321 233.556 185.264C228.005 209.265 209.265 228.005 185.264 233.556C178.321 235.162 171.692 237.908 165.647 241.682C144.751 254.727 118.249 254.727 97.3526 241.682C91.3076 237.908 84.6788 235.162 77.7357 233.556C53.7354 228.005 34.9951 209.265 29.444 185.264C27.8381 178.321 25.0923 171.692 21.3184 165.647C8.27292 144.751 8.27292 118.249 21.3184 97.3526C25.0923 91.3076 27.8381 84.6788 29.444 77.7357C34.9951 53.7354 53.7354 34.9951 77.7357 29.444C84.6788 27.8381 91.3076 25.0923 97.3526 21.3184Z" fill="#FF6B6B"/>
</mask>
<g mask="url(#mask0_24_1340)">
<path fill-rule="evenodd" clip-rule="evenodd" d="M130.417 50C160.041 50 183.741 73.6983 183.741 102.784C183.741 132.409 160.042 156.108 130.417 156.108C101.331 156.108 77.6324 132.41 77.6324 102.784C77.6324 73.6991 101.331 50 130.417 50Z" fill="#E24444"/>
<path fill-rule="evenodd" clip-rule="evenodd" d="M82.4801 165.8H178.889C205.82 165.8 227.362 187.882 227.362 214.272V253.049C227.362 258.435 223.054 262.745 217.667 262.745H43.6953C38.3097 262.745 34 258.437 34 253.049V214.272C34 187.88 55.5434 165.8 82.4725 165.8H82.4801Z" fill="#E24444"/>
</g>
</svg>
