<svg width="42" height="42" viewBox="0 0 42 42" fill="none" xmlns="http://www.w3.org/2000/svg">
<circle cx="21" cy="21" r="21" fill="#FFEDEE"/>
<path d="M15.564 16.3516C10.2043 20.8295 12.1363 22.3196 13.4194 22.8942C14.701 23.4687 16.4107 22.6802 18.5471 21.1392C20.6835 19.5982 25.6296 16.6254 26.7959 18.1051C27.9606 19.5862 27.9866 22.5246 22.9887 26.3936C17.9907 30.2626 16.9542 28.0004 19.4215 26.226C21.8888 24.4516 21.4346 23.3834 20.2699 23.2278C19.0468 23.0647 17.9907 23.3355 16.9039 25.1757C16.9039 25.1757 15.2395 28.1411 17.3694 28.9011C18.8537 29.4307 23.2352 27.7999 26.4536 24.8107C28.8253 22.6084 30.5594 19.9752 29.8326 16.4623C28.8804 11.8587 20.9253 11.8707 15.5656 16.3501L15.564 16.3516Z" fill="#ED1C24"/>
</svg>
