<svg width="42" height="42" viewBox="0 0 42 42" fill="none" xmlns="http://www.w3.org/2000/svg">
<circle cx="21" cy="21" r="21" fill="#F5EDFF"/>
<path d="M12.7391 17.6667C12.237 17.6667 11.8261 17.2917 11.8261 16.8333C11.8261 16.375 12.237 16 12.7391 16H15.0583C14.7387 16.5 14.5652 17.075 14.5652 17.6667H12.7391ZM14.5652 21.8333H11.8261C11.3239 21.8333 10.913 21.4583 10.913 21C10.913 20.5417 11.3239 20.1667 11.8261 20.1667H14.5652V21.8333ZM10.913 26C10.409 26 10 25.625 10 25.1667C10 24.7083 10.409 24.3333 10.913 24.3333H14.5652C14.5652 24.925 14.7387 25.5 15.0583 26H10.913ZM29.1739 16H18.2174C17.2039 16 16.3913 16.7417 16.3913 17.6667V24.3333C16.3913 25.2583 17.2039 26 18.2174 26H29.1739C30.1874 26 31 25.2583 31 24.3333V17.6667C31 16.7417 30.1874 16 29.1739 16ZM29.1739 21H18.2174V18.5H29.1739V21Z" fill="#8A44E2"/>
</svg>
