<svg width="78" height="78" viewBox="0 0 78 78" fill="none" xmlns="http://www.w3.org/2000/svg">
<path d="M78 39C78 60.5391 60.5391 78 39 78C17.4609 78 0 60.5391 0 39C0 17.4609 17.4609 0 39 0C60.5391 0 78 17.4609 78 39ZM19.3004 39C19.3004 49.8798 28.1202 58.6996 39 58.6996C49.8798 58.6996 58.6996 49.8798 58.6996 39C58.6996 28.1202 49.8798 19.3004 39 19.3004C28.1202 19.3004 19.3004 28.1202 19.3004 39Z" fill="#FDDDDC"/>
<path d="M37.5835 34.75H40.4168V31.9166H37.5835V34.75ZM39.0002 50.3333C32.7527 50.3333 27.6668 45.2475 27.6668 39C27.6668 32.7525 32.7527 27.6666 39.0002 27.6666C45.2477 27.6666 50.3335 32.7525 50.3335 39C50.3335 45.2475 45.2477 50.3333 39.0002 50.3333ZM39.0002 24.8333C37.1398 24.8333 35.2976 25.1997 33.5788 25.9117C31.86 26.6236 30.2983 27.6671 28.9828 28.9826C26.3261 31.6394 24.8335 35.2427 24.8335 39C24.8335 42.7572 26.3261 46.3606 28.9828 49.0173C30.2983 50.3328 31.86 51.3763 33.5788 52.0883C35.2976 52.8002 37.1398 53.1666 39.0002 53.1666C42.7574 53.1666 46.3607 51.6741 49.0175 49.0173C51.6743 46.3606 53.1668 42.7572 53.1668 39C53.1668 37.1396 52.8004 35.2974 52.0885 33.5786C51.3765 31.8599 50.333 30.2981 49.0175 28.9826C47.702 27.6671 46.1403 26.6236 44.4215 25.9117C42.7027 25.1997 40.8606 24.8333 39.0002 24.8333ZM37.5835 46.0833H40.4168V37.5833H37.5835V46.0833Z" fill="#BB0200"/>
</svg>
