<svg width="42" height="42" viewBox="0 0 42 42" fill="none" xmlns="http://www.w3.org/2000/svg">
<circle cx="21" cy="21" r="21" fill="#F5FADE"/>
<g clip-path="url(#clip0_80_1634)">
<path fill-rule="evenodd" clip-rule="evenodd" d="M18.6538 13.6198H22.3394C23.5117 13.6198 24.4708 14.5789 24.4708 15.7511V21.8789C24.4708 23.0511 23.5117 24.0103 22.3394 24.0103H18.6538C17.4816 24.0103 16.5225 23.0511 16.5225 21.8789V15.7512C16.5225 14.579 17.4816 13.6199 18.6538 13.6199V13.6198Z" fill="white"/>
<path fill-rule="evenodd" clip-rule="evenodd" d="M18.2203 17.7659C18.5849 18.6187 19.0813 19.0108 19.6828 19.0348C18.745 19.7353 17.7305 20.161 16.6728 20.4329C16.0086 20.3903 15.3735 20.2213 14.7568 20.0526C16.3147 19.7451 17.4764 18.991 18.2203 17.7659Z" fill="#82221C" stroke="#CD8C5D" stroke-width="0.020447" stroke-miterlimit="2.61"/>
<path fill-rule="evenodd" clip-rule="evenodd" d="M23.6714 33.1576H17.3216C16.3937 33.1576 15.6343 32.3982 15.6343 31.4701V12.8648C15.6343 11.9369 16.3936 11.1775 17.3216 11.1775H23.6714C23.7466 11.1775 23.8207 11.1826 23.8935 11.1922V9.82322C23.8935 9.42023 24.2231 9.09058 24.6261 9.09058C25.0291 9.09058 25.3587 9.42023 25.3587 9.82322V12.1322C25.3587 12.2347 25.3373 12.3324 25.2989 12.4211C25.3378 12.5626 25.3587 12.7115 25.3587 12.8648V31.4701C25.3587 32.3981 24.5995 33.1576 23.6714 33.1576ZM18.6538 13.6197H22.3392C23.5115 13.6197 24.4706 14.5788 24.4706 15.7511V21.8789C24.4706 23.051 23.5115 24.0103 22.3392 24.0103H18.6538C17.4815 24.0103 16.5223 23.051 16.5223 21.8789V15.7512C16.5223 14.5789 17.4815 13.6198 18.6538 13.6198V13.6197Z" fill="#D2E288"/>
<path fill-rule="evenodd" clip-rule="evenodd" d="M22.3057 15.5677L26.7017 17.7879C24.4629 20.7336 20.6876 20.8111 16.6665 20.43C19.3548 19.7675 21.2161 18.1247 22.3058 15.5677H22.3057Z" fill="#EC2127" stroke="#CD8C5D" stroke-width="0.020447" stroke-miterlimit="2.61"/>
</g>
<defs>
<clipPath id="clip0_80_1634">
<rect width="24" height="24" fill="white" transform="translate(9 9)"/>
</clipPath>
</defs>
</svg>
