<svg width="102" height="102" viewBox="0 0 102 102" fill="none" xmlns="http://www.w3.org/2000/svg">
<circle cx="51" cy="51" r="50.5" fill="#FFFDFD" stroke="#1DB85B"/>
<path d="M73.772 54.2983C75.4282 52.4113 75.4282 49.5887 73.772 47.7017L72.3923 46.1298C71.4866 45.0979 71.0451 43.7388 71.1714 42.3716L71.3636 40.2915C71.5943 37.7936 69.9385 35.5114 67.4923 34.9557L65.4372 34.4889C64.1004 34.1853 62.9469 33.3461 62.2466 32.1677L61.1744 30.3637C59.8922 28.2063 57.2094 27.3337 54.9033 28.3239L52.973 29.1528C51.7134 29.6937 50.2869 29.6937 49.0273 29.1528L47.097 28.3239C44.791 27.3337 42.1082 28.2063 40.826 30.3637L39.7578 32.161C39.055 33.3433 37.8963 34.184 36.5543 34.4851L34.522 34.9411C32.0694 35.4914 30.4066 37.7769 30.6378 40.2798L30.8294 42.3535C30.9555 43.7177 30.5162 45.0738 29.6144 46.1051L28.2173 47.7025C26.5667 49.5899 26.5692 52.4079 28.2232 54.2923L29.6085 55.8707C30.514 56.9023 30.9555 58.2609 30.8296 59.6277L30.6356 61.7328C30.4055 64.2303 32.0612 66.5118 34.507 67.0674L36.5631 67.5344C37.8999 67.8381 39.0534 68.6772 39.7538 69.8556L40.8203 71.6502C42.105 73.8116 44.7949 74.6829 47.1028 73.685L49.0227 72.855C50.2849 72.3092 51.7162 72.3075 52.9798 72.8501L54.9034 73.6761C57.2094 74.6663 59.8922 73.7937 61.1744 71.6363L62.2466 69.8323C62.9469 68.6539 64.1004 67.8147 65.4372 67.5111L67.4923 67.0443C69.9385 66.4886 71.5943 64.2064 71.3636 61.7085L71.1714 59.6284C71.0451 58.2611 71.4866 56.9021 72.3923 55.8701L73.772 54.2983ZM46.3335 62.6667L37.0002 53.3333L40.2902 50.0433L46.3335 56.0633L61.7102 40.6867L65.0002 44L46.3335 62.6667Z" fill="#1DB85B"/>
</svg>
