<svg width="92" height="92" viewBox="0 0 92 92" fill="none" xmlns="http://www.w3.org/2000/svg">
<circle cx="46" cy="46" r="46" fill="#FFF3F1"/>
<path d="M55.75 33.25L33.25 55.75L36.25 58.75L58.75 36.25L55.75 33.25ZM38.5 34C37.3065 34 36.1619 34.4741 35.318 35.318C34.4741 36.1619 34 37.3065 34 38.5C34 39.6935 34.4741 40.8381 35.318 41.682C36.1619 42.5259 37.3065 43 38.5 43C39.6935 43 40.8381 42.5259 41.682 41.682C42.5259 40.8381 43 39.6935 43 38.5C43 37.3065 42.5259 36.1619 41.682 35.318C40.8381 34.4741 39.6935 34 38.5 34ZM53.5 49C52.3065 49 51.1619 49.4741 50.318 50.318C49.4741 51.1619 49 52.3065 49 53.5C49 54.6935 49.4741 55.8381 50.318 56.682C51.1619 57.5259 52.3065 58 53.5 58C54.6935 58 55.8381 57.5259 56.682 56.682C57.5259 55.8381 58 54.6935 58 53.5C58 52.3065 57.5259 51.1619 56.682 50.318C55.8381 49.4741 54.6935 49 53.5 49Z" fill="#BB0200"/>
</svg>
