<svg width="27" height="9" viewBox="0 0 27 9" fill="none" xmlns="http://www.w3.org/2000/svg">
<path fill-rule="evenodd" clip-rule="evenodd" d="M6.75029 8.596H4.41361L2.66138 1.91116C2.57821 1.60365 2.40162 1.3318 2.14186 1.20368C1.49361 0.881689 0.779274 0.625437 0 0.496196V0.23883H3.76421C4.28373 0.23883 4.67337 0.625437 4.73831 1.07444L5.64746 5.89644L7.983 0.23883H10.2547L6.75029 8.596ZM11.5535 8.596H9.34668L11.1638 0.238831H13.3707L11.5535 8.596ZM16.2257 2.55401C16.2906 2.1039 16.6802 1.84653 17.1348 1.84653C17.8491 1.78191 18.6273 1.91115 19.2767 2.23203L19.6663 0.432689C19.0169 0.175322 18.3026 0.0460815 17.6543 0.0460815C15.5125 0.0460815 13.9539 1.20367 13.9539 2.81027C13.9539 4.03248 15.0579 4.67422 15.8372 5.06083C16.6802 5.44632 17.0049 5.70369 16.94 6.08918C16.94 6.66742 16.2906 6.92479 15.6423 6.92479C14.8631 6.92479 14.0838 6.73204 13.3706 6.41006L12.981 8.21051C13.7602 8.53138 14.6033 8.66062 15.3826 8.66062C17.7842 8.72413 19.2767 7.56765 19.2767 5.83182C19.2767 3.64587 16.2257 3.51775 16.2257 2.55401ZM26.9999 8.596L25.2477 0.23883H23.3656C22.976 0.23883 22.5863 0.496196 22.4564 0.881689L19.2117 8.596H21.4835L21.9369 7.3749H24.7282L24.9879 8.596H26.9999ZM23.6903 2.4894L24.3386 5.63907H22.5214L23.6903 2.4894Z" fill="#172B85"/>
</svg>
